<svg xmlns="http://www.w3.org/2000/svg" viewBox="0 0 58.91 60.74"><defs><style>.cls-1{fill:#000000;}</style></defs><g id="Layer_2" data-name="Layer 2"><g id="Layer_1-2" data-name="Layer 1"><g id="plus"><path class="cls-1" d="M33.11,3.42v20a3.42,3.42,0,0,0,3.42,3.43H55.48a3.42,3.42,0,0,1,3.43,3.42h0a3.43,3.43,0,0,1-3.43,3.43H36.53a3.42,3.42,0,0,0-3.42,3.42V57.31a3.44,3.44,0,0,1-3.43,3.43h-.45a3.43,3.43,0,0,1-3.43-3.43V37.1a3.42,3.42,0,0,0-3.42-3.42h-19A3.43,3.43,0,0,1,0,30.25H0a3.42,3.42,0,0,1,3.42-3.42h19A3.42,3.42,0,0,0,25.8,23.4v-20A3.42,3.42,0,0,1,29.23,0h.45A3.43,3.43,0,0,1,33.11,3.42Z"/></g></g></g></svg>