<?xml version="1.0" encoding="UTF-8" standalone="no"?><!DOCTYPE svg PUBLIC "-//W3C//DTD SVG 1.1//EN" "http://www.w3.org/Graphics/SVG/1.1/DTD/svg11.dtd"><svg width="100%" height="100%" viewBox="0 0 800 800" version="1.1" xmlns="http://www.w3.org/2000/svg" xmlns:xlink="http://www.w3.org/1999/xlink" xml:space="preserve" xmlns:serif="http://www.serif.com/" style="fill-rule:evenodd;clip-rule:evenodd;stroke-linejoin:round;stroke-miterlimit:2;"><rect id="Artboard1" x="0" y="0" width="798.613" height="798.613" style="fill:none;"/><g><path d="M267.188,351.042c53.82,-37.675 124.304,-40.8 182.637,-70.488c26.146,-13.104 50.242,-29.946 71.529,-50c10.167,-9.696 19.463,-20.271 27.779,-31.596c4.338,-5.904 8.334,-11.979 12.15,-18.229c2.471,-6.354 5.313,-12.558 8.509,-18.575l-18.23,0c4.167,2.604 7.638,20.483 9.721,26.042c3.3,8.333 6.25,17.358 9.205,25.171c5.899,17.362 11.283,34.725 15.449,52.083c6.876,27.363 10.317,55.471 10.242,83.683c-0.512,40.154 -11.979,79.421 -33.158,113.542c-57.292,92.708 -187.154,133.854 -279.167,67.879c-27.491,-19.396 -47.196,-47.962 -55.554,-80.554c-7.446,-39.3 9.25,-79.467 42.358,-101.908c17.363,-13.717 -6.941,-38.021 -24.479,-24.48c-64.754,50.171 -69.441,134.896 -20.483,198.088c37.879,47.267 94.662,75.596 155.208,77.433c127.254,3.817 236.459,-102.779 249.304,-225.696c3.034,-36.916 0.1,-74.083 -8.679,-110.07c-5.104,-22.355 -11.537,-44.384 -19.271,-65.971c-7.291,-20.138 -13.891,-52.084 -32.466,-64.929c-5.367,-3.1 -11.996,-3.1 -17.363,-0c-11.283,7.462 -14.408,19.616 -21.004,31.075c-7.696,13.162 -17.029,25.296 -27.779,36.112c-21.563,21.454 -46.633,39.071 -74.133,52.084c-57.638,28.645 -126.042,31.42 -179.688,69.441c-18.229,12.5 -1.042,42.017 17.363,29.863Z" style="fill:#fff;fill-rule:nonzero;"/><path d="M153.992,613.542c23.016,-26.067 50.104,-48.229 80.208,-65.625c24.308,-15.279 49.133,-29.513 73.958,-43.575c20.663,-11.634 48.959,-28.821 66.842,-36.288c71.529,-30.033 166.492,-65.796 179.342,-154.167c3.125,-21.875 -30.384,-31.25 -33.509,-9.2c-11.979,81.946 -104.166,104.167 -166.841,134.896c-51.246,25.175 -100.775,53.709 -148.263,85.417c-28.604,17.162 -54.325,38.721 -76.216,63.887c-13.888,17.363 10.416,42.017 24.479,24.48l-0,0.175Z" style="fill:#fff;fill-rule:nonzero;"/><circle cx="398.783" cy="398.783" r="381.425" style="fill:none;stroke:#fff;stroke-width:14.58px;"/></g></svg>