<svg width="24" height="19" viewBox="0 0 24 19" fill="none" xmlns="http://www.w3.org/2000/svg">
<rect x="1.15469" y="8.74219" width="21.3268" height="0.680682" fill="white"/>
<path d="M19.7288 7.37891V17.5891H3.90573V7.37891" fill="white"/>
<path d="M19.7288 7.37891V17.5891H3.90573V7.37891" stroke="white" stroke-width="2" stroke-linecap="round" stroke-linejoin="round"/>
<path d="M1.15374 8.74139L11.88 1.25391L22.4805 8.74139" fill="white"/>
<path d="M1.15374 8.74139L11.88 1.25391L22.4805 8.74139" stroke="white" stroke-width="2" stroke-linecap="round" stroke-linejoin="round"/>
<path d="M9.02424 10.0785C9.66947 9.67661 10.3815 9.39155 11.1272 9.23659C11.7947 9.06763 12.4438 8.83375 13.065 8.53836C13.6435 8.25293 14.178 7.88721 14.6524 7.45221C14.8916 7.22806 15.1097 6.98281 15.3041 6.7195C15.402 6.59188 15.4919 6.4585 15.5735 6.32009C15.6359 6.15597 15.4742 5.95179 15.5735 5.80667L15.6112 5.93793H15.6749L15.6112 5.8546C15.748 6.0626 15.7042 6.29325 15.7589 6.5356C15.8371 6.73386 15.9095 6.935 15.979 7.13614C16.1094 7.51255 16.2224 7.89759 16.3151 8.2855C16.4656 8.89575 16.5395 9.5221 16.5352 10.1503C16.5218 11.0744 16.2501 11.9766 15.7502 12.7565C14.4265 14.8282 11.4922 15.7161 9.40949 14.2421C8.77779 13.8055 8.32059 13.1628 8.1176 12.4261C8.02077 11.9905 8.05508 11.5364 8.21627 11.12C8.37746 10.7037 8.65842 10.3435 9.02424 10.0842C9.31391 9.86299 9.02424 9.36302 8.73458 9.59002C8.27915 9.90555 7.92424 10.3438 7.71175 10.8529C7.49926 11.3621 7.43806 11.9209 7.53538 12.4634C7.77149 13.4191 8.36746 14.2488 9.20094 14.7823C10.8665 15.9 13.0216 15.7477 14.6553 14.6472C15.3077 14.2199 15.8609 13.6596 16.2779 13.0036C16.695 12.3476 16.9663 11.611 17.074 10.8428C17.1788 9.91896 17.111 8.98386 16.8741 8.08436C16.7247 7.46334 16.5311 6.85361 16.2948 6.25975C16.1789 5.97241 15.8545 4.95523 15.3823 5.49543C15.2234 5.73849 15.0811 5.99193 14.9565 6.254C14.77 6.52791 14.5533 6.7804 14.3106 7.00684C13.8278 7.45215 13.2763 7.81787 12.6769 8.09011C11.4082 8.69639 9.90482 8.76248 8.73748 9.58427C8.43043 9.79403 8.7201 10.294 9.02424 10.0785Z" fill="#548687" stroke="#548687" stroke-width="0.5"/>
<path d="M5.77102 16.2283C6.72702 15.0089 9.07454 13.4774 10.3749 12.7336C11.0029 12.3619 11.6534 12.032 12.3226 11.7459C13.019 11.4719 13.6793 11.1094 14.288 10.6669C15.0065 10.1151 15.2747 10.0198 15.4023 9.08089C15.4558 8.69986 14.8857 8.53221 14.8323 8.91933C14.6156 10.4983 13.3172 10.6851 12.0257 11.2155C11.3734 11.4925 10.7397 11.8132 10.1285 12.1757C9.2883 12.6574 8.44512 13.142 7.64944 13.6999C7.10193 14.0612 5.77547 15.2876 5.3524 15.7954C5.11488 16.1002 5.53054 16.5331 5.77102 16.2283Z" fill="#548687" stroke="#548687" stroke-width="0.5"/>
</svg>
