<?xml version="1.0" encoding="UTF-8" standalone="no"?><!DOCTYPE svg PUBLIC "-//W3C//DTD SVG 1.1//EN" "http://www.w3.org/Graphics/SVG/1.1/DTD/svg11.dtd"><svg width="100%" height="100%" viewBox="0 0 246 254" version="1.1" xmlns="http://www.w3.org/2000/svg" xmlns:xlink="http://www.w3.org/1999/xlink" xml:space="preserve" xmlns:serif="http://www.serif.com/" style="fill-rule:evenodd;clip-rule:evenodd;stroke-linejoin:round;stroke-miterlimit:2;"><path d="M54.113,36.371l58.925,58.926c0.01,0.009 0.02,0.019 0.03,0.029c5.528,5.528 14.625,5.528 20.152,0l55.832,-55.832c0.01,-0.01 0.02,-0.02 0.03,-0.029c5.528,-5.528 14.625,-5.528 20.152,-0c0,-0 0,-0 0,-0c5.544,5.543 5.544,14.667 0,20.211l-55.832,55.832c-5.527,5.528 -5.527,14.625 0,20.153l59.486,59.485c5.521,5.554 5.521,14.658 -0,20.211l-1.326,1.326c-5.544,5.544 -14.668,5.544 -20.211,0l-59.545,-59.544c-5.527,-5.528 -14.625,-5.528 -20.152,-0l-55.98,55.979c-5.568,5.408 -14.576,5.342 -20.064,-0.147c-5.527,-5.528 -5.527,-14.625 0,-20.153l55.98,-55.979c5.429,-5.558 5.363,-14.586 -0.148,-20.064l-58.925,-58.926c-5.485,-5.548 -5.445,-14.622 0.088,-20.123l1.326,-1.326c5.533,-5.532 14.633,-5.546 20.182,-0.029Z" style="fill-rule:nonzero;"/></svg>