<svg width="35" height="128" viewBox="0 0 35 128" fill="none" xmlns="http://www.w3.org/2000/svg">
<path d="M23.0534 126.426C23.0534 126.754 23.0534 127.082 23.0534 127.41C21.1162 127.41 19.1789 127.41 17.2416 127.41C17.2416 127.082 17.2416 126.82 17.2416 126.492C17.2416 126.426 17.3708 126.295 17.4354 126.229C18.7269 125.18 20.0184 124.195 21.3099 123.146C21.3745 123.08 21.439 123.014 21.5682 122.949C20.083 122.949 18.6623 122.949 17.2416 122.949C17.2416 122.621 17.2416 122.293 17.2416 121.965C19.1789 121.965 21.1162 121.965 23.0534 121.965C23.0534 122.293 23.0534 122.621 23.0534 122.949C23.0534 123.014 22.9243 123.146 22.8597 123.211C21.5682 124.261 20.2767 125.245 18.9852 126.229C18.9206 126.295 18.9206 126.295 18.7914 126.426C20.2767 126.426 21.6328 126.426 23.0534 126.426Z" fill="white"/>
<path d="M21.0517 80.4994C21.6974 80.0401 22.3432 79.5153 23.1181 78.9904C23.1181 79.4497 23.1181 79.7777 23.1181 80.1713C23.1181 80.2369 22.9889 80.3682 22.9244 80.3682C22.4078 80.7618 21.8911 81.1554 21.3745 81.5491C21.31 81.6147 21.1808 81.7459 21.1808 81.8771C21.1808 82.2052 21.1808 82.5988 21.1808 82.9925C21.8266 82.9925 22.4723 82.9925 23.1181 82.9925C23.1181 83.3205 23.1181 83.6485 23.1181 83.9766C21.1808 83.9766 19.2435 83.9766 17.3709 83.9766L17.3063 83.911C17.3063 82.7956 17.1771 81.6803 17.4354 80.565C17.6292 79.7121 18.1458 79.3184 18.9852 79.2528C19.5018 79.2528 20.0185 79.2528 20.4059 79.5809C20.5996 79.8433 20.7934 80.1713 21.0517 80.4994ZM20.2122 82.9925C20.2122 82.3364 20.2122 81.7459 20.2122 81.1554C20.2122 80.8274 20.0185 80.4994 19.631 80.3682C18.8561 80.0401 18.2749 80.4338 18.1458 81.221V81.2867C18.1458 81.8115 18.1458 82.402 18.1458 82.9268C18.7915 82.9925 19.5018 82.9925 20.2122 82.9925Z" fill="white"/>
<path d="M19.2436 69.9357C19.0499 69.9357 18.8562 69.9357 18.6625 69.8701C18.6625 69.5421 18.6625 69.2797 18.6625 68.9516C18.7916 68.9516 18.8562 68.9516 18.9853 68.9516C20.1477 68.9516 21.2455 68.9516 22.4079 68.9516C24.4743 68.9516 25.5721 70.723 24.6034 72.6256C24.5388 72.7569 24.4097 72.9537 24.2805 73.0849C24.0222 72.9537 23.8285 72.7569 23.5702 72.6256C24.0868 71.8384 24.2805 71.0511 23.7639 70.2638C23.3765 69.6733 22.7307 69.8045 22.085 69.8045C22.4724 70.1326 22.7953 70.5262 22.8599 70.9855C22.989 72.1664 22.2141 73.2161 21.0518 73.3473C20.2769 73.4129 19.5665 73.2161 19.0499 72.6256C18.4042 71.8384 18.4687 70.7886 19.1145 70.067C19.1145 70.067 19.1791 70.067 19.2436 69.9357ZM20.6643 72.4944C21.4392 72.4944 22.0204 71.9696 22.0204 71.2479C22.0204 70.5262 21.4392 69.9357 20.6643 69.9357C19.8894 69.9357 19.3082 70.5262 19.3082 71.2479C19.3082 71.9696 19.8894 72.4944 20.6643 72.4944Z" fill="white"/>
<path d="M22.2784 101.824C21.9556 101.562 21.7618 101.365 21.5681 101.234C21.7618 100.709 22.0847 100.25 22.2139 99.7248C22.2784 99.3967 22.2139 99.0031 22.1493 98.6751C22.0847 98.4126 21.8264 98.2158 21.5681 98.2158C21.2452 98.2158 21.0515 98.347 20.9224 98.6095C20.7932 98.9375 20.7286 99.3311 20.5995 99.6592C20.4703 100.053 20.4057 100.446 20.212 100.775C19.6308 101.824 18.1456 101.824 17.4998 100.775C16.9187 99.856 17.1124 98.1502 17.8873 97.3629C18.1456 97.4941 18.3393 97.691 18.5976 97.8878C18.2748 98.4126 18.081 98.9375 18.081 99.528C18.081 99.7248 18.1456 99.9216 18.2102 100.053C18.2748 100.315 18.4685 100.446 18.7914 100.446C19.0497 100.446 19.308 100.315 19.4371 100.053C19.5663 99.6592 19.6954 99.2655 19.8246 98.9375C19.9537 98.6095 20.0183 98.347 20.1474 98.019C20.4057 97.4285 20.8578 97.1661 21.5035 97.1005C22.1493 97.1005 22.6659 97.3629 22.9888 97.9534C23.4408 98.8063 23.3762 99.6592 23.0533 100.512C22.795 100.971 22.4722 101.365 22.2784 101.824Z" fill="white"/>
<path d="M23.0534 107.992C23.0534 108.32 23.0534 108.582 23.0534 108.91C20.987 108.91 18.9852 108.91 16.9187 108.91C16.9187 108.582 16.9187 108.32 16.9187 107.992C17.6937 107.992 18.4686 107.992 19.3726 107.992C19.2435 107.86 19.1789 107.795 19.1143 107.795C18.2103 106.942 18.4686 105.302 19.5663 104.908C19.7601 104.842 19.9538 104.777 20.2121 104.777C21.1162 104.777 21.9556 104.777 22.8597 104.777C22.9243 104.777 22.9889 104.777 23.0534 104.777C23.0534 105.105 23.0534 105.367 23.0534 105.695C22.9243 105.695 22.8597 105.695 22.7306 105.695C22.0202 105.695 21.2453 105.695 20.535 105.695C19.8246 105.695 19.3726 106.089 19.3726 106.68C19.3726 107.336 19.8246 107.926 20.535 107.926C21.2453 107.926 22.0202 107.926 22.7306 107.926C22.8597 107.992 22.9243 107.992 23.0534 107.992Z" fill="white"/>
<path d="M21.2453 77.6138C21.7619 77.5482 22.0202 77.2857 22.1494 76.8921C22.4723 76.3016 22.3431 75.58 21.8265 74.8583C22.0202 74.7271 22.1494 74.5302 22.3431 74.3334C22.7306 74.7271 22.9243 75.1207 23.0534 75.6456C23.1826 76.3672 23.118 77.0233 22.666 77.6138C22.0848 78.4011 20.987 78.7291 19.9538 78.4011C19.1143 78.1386 18.5331 77.2201 18.5331 76.236C18.5331 75.1863 19.1143 74.3334 20.0184 74.1366C20.2767 74.071 20.5996 74.071 20.9224 74.071C21.1807 74.071 21.2453 74.1366 21.2453 74.399C21.2453 75.3831 21.2453 76.3016 21.2453 77.2857C21.2453 77.417 21.2453 77.4826 21.2453 77.6138ZM20.535 75.0551C19.8892 74.9895 19.4372 75.4487 19.3726 76.1704C19.308 76.9577 19.8247 77.6138 20.535 77.6138C20.535 76.7609 20.535 75.908 20.535 75.0551Z" fill="white"/>
<path d="M21.2454 92.0459C21.2454 93.2268 21.2454 94.3421 21.2454 95.523C21.762 95.4574 22.0203 95.195 22.214 94.8014C22.4723 94.0797 22.4077 93.4236 21.8265 92.8331C22.0203 92.6363 22.214 92.5051 22.4077 92.3083C23.4409 93.2268 23.5055 95.523 21.8911 96.2447C20.5996 96.8352 18.9206 96.3759 18.5978 94.6045C18.3395 93.358 19.0498 92.1771 20.1476 91.9802C20.535 92.0459 20.8579 92.0459 21.2454 92.0459ZM20.535 92.9644C20.083 92.9644 19.7601 93.0956 19.5664 93.4892C19.2435 94.0141 19.3081 94.6045 19.631 95.0638C19.8247 95.3918 20.1476 95.5887 20.535 95.523C20.535 94.6702 20.535 93.8173 20.535 92.9644Z" fill="white"/>
<path d="M23.0534 87.5183C23.0534 87.7807 23.0534 88.0432 23.0534 88.3056C22.8597 88.3056 22.7306 88.3056 22.6014 88.3056C22.7306 88.6336 22.9889 88.9617 23.0534 89.3553C23.118 89.6177 23.118 89.9458 23.0534 90.2738C22.9243 91.0611 22.3431 91.5203 21.5682 91.4547C20.8579 91.3891 20.4058 90.9299 20.3413 90.077C20.2767 89.6177 20.3413 89.0929 20.3413 88.6336C20.3413 88.4368 20.2767 88.3712 20.083 88.3712C19.5664 88.4368 19.308 88.6992 19.308 89.2897C19.308 89.8146 19.5018 90.2738 19.7601 90.6674C19.5664 90.7987 19.3726 90.9299 19.1789 91.0611C18.7914 90.6674 18.5977 90.1426 18.5331 89.6177C18.5331 89.1585 18.5331 88.6992 18.6623 88.3056C18.856 87.6495 19.3726 87.3871 20.0184 87.3871C20.987 87.3871 21.9557 87.3871 22.8597 87.3871C22.9889 87.4527 22.9889 87.5183 23.0534 87.5183ZM20.987 88.4368C20.987 88.9617 21.0516 89.5521 21.1162 90.077C21.1162 90.3394 21.3099 90.5362 21.6328 90.5362C21.8911 90.5362 22.1494 90.4706 22.214 90.2082C22.4077 89.7489 22.4077 89.2897 22.0848 88.8304C21.8911 88.4368 21.5036 88.3712 20.987 88.4368Z" fill="white"/>
<path d="M23.1181 63.5092C23.1181 64.887 22.1495 65.8711 20.858 65.8711C19.5665 65.8711 18.5979 64.887 18.5979 63.5092C18.5979 62.1315 19.5665 61.1474 20.858 61.0818C22.1495 61.1474 23.1181 62.1315 23.1181 63.5092ZM20.858 62.0659C20.0185 62.0659 19.3728 62.6563 19.3728 63.5092C19.3728 64.3621 19.9539 64.9526 20.858 64.9526C21.6975 64.9526 22.3432 64.3621 22.2787 63.5092C22.2787 62.6563 21.6975 62.0659 20.858 62.0659Z" fill="white"/>
<path d="M23.1181 118.685C23.1181 120.063 22.1495 121.047 20.858 121.047C19.5665 121.047 18.5979 119.997 18.5979 118.619C18.5979 117.242 19.5665 116.258 20.858 116.258C22.1495 116.323 23.1181 117.307 23.1181 118.685ZM20.858 117.242C20.0185 117.242 19.3728 117.832 19.3728 118.685C19.3728 119.538 20.0185 120.128 20.858 120.128C21.6975 120.128 22.3432 119.538 22.3432 118.685C22.3432 117.832 21.6975 117.242 20.858 117.242Z" fill="white"/>
<path d="M23.0534 59.4409C23.0534 59.7689 23.0534 60.0313 23.0534 60.3594C21.5682 60.3594 20.1475 60.3594 18.6623 60.3594C18.6623 60.0969 18.6623 59.7689 18.6623 59.4409C18.856 59.4409 19.1143 59.4409 19.3726 59.4409C19.308 59.3753 19.2435 59.3097 19.2435 59.244C18.5977 58.7192 18.404 57.9319 18.7269 57.1446C18.9852 56.5541 19.4372 56.2261 20.0184 56.2261C21.0516 56.1605 22.0848 56.2261 23.118 56.2261C23.118 56.5541 23.118 56.8166 23.118 57.1446C22.9889 57.1446 22.9243 57.1446 22.7951 57.1446C22.0848 57.1446 21.3745 57.1446 20.5996 57.1446C19.8246 57.1446 19.4372 57.4727 19.4372 58.1287C19.3726 58.7848 19.8246 59.3097 20.4704 59.3753C20.9224 59.4409 21.3745 59.3753 21.8265 59.4409C22.1494 59.4409 22.6014 59.4409 23.0534 59.4409Z" fill="white"/>
<path d="M19.3726 112.124C19.3726 112.32 19.3726 112.452 19.3726 112.648C19.1143 112.648 18.9206 112.648 18.6623 112.648C18.6623 112.452 18.6623 112.32 18.5977 112.124C18.1457 112.124 17.6937 112.124 17.2416 112.124C17.2416 111.796 17.2416 111.533 17.2416 111.205C17.6937 111.205 18.1457 111.205 18.5977 111.205C18.5977 110.811 18.5977 110.418 18.5977 110.024C18.856 110.024 19.1143 110.024 19.3726 110.024C19.3726 110.418 19.3726 110.811 19.3726 111.205C19.9538 111.205 20.4704 111.205 21.0516 111.205C21.2453 111.205 21.5036 111.205 21.6973 111.205C21.9556 111.205 22.214 111.139 22.3431 110.877C22.4723 110.615 22.4077 110.352 22.2785 110.155C22.214 110.09 22.214 110.09 22.1494 110.024C22.3431 109.893 22.5368 109.762 22.7306 109.63C23.1826 110.024 23.3117 110.68 23.118 111.271C22.9243 111.861 22.4077 112.189 21.6973 112.189C20.8579 112.124 20.1475 112.124 19.3726 112.124Z" fill="white"/>
<path d="M19.5019 113.173C19.5019 113.698 19.6956 114.157 20.1477 114.354C20.4705 114.485 20.858 114.551 21.2455 114.617C21.8266 114.682 22.4078 114.617 23.0536 114.617C23.0536 114.945 23.0536 115.207 23.0536 115.535C21.5683 115.535 20.1477 115.535 18.6624 115.535C18.6624 115.273 18.6624 114.945 18.6624 114.617C18.9207 114.617 19.179 114.617 19.5019 114.617C18.9853 114.223 18.5979 113.829 18.5979 113.173C18.8562 113.173 19.1145 113.173 19.5019 113.173Z" fill="white"/>
<path d="M23.0534 66.8549C23.0534 67.183 23.0534 67.4454 23.0534 67.7734C21.5681 67.7734 20.1475 67.7734 18.6622 67.7734C18.6622 67.511 18.6622 67.183 18.6622 66.8549C20.0829 66.8549 21.5681 66.8549 23.0534 66.8549Z" fill="white"/>
<path d="M17.3061 66.7214C17.629 66.7214 17.8873 66.9838 17.8873 67.3119C17.8873 67.6399 17.629 67.9023 17.3061 67.9023C16.9833 67.9023 16.725 67.6399 16.725 67.3119C16.725 66.9838 16.9833 66.7214 17.3061 66.7214Z" fill="white"/>
<path d="M0 50.4531C0 33.6576 0 16.8621 0 0.0010376C10.9779 0.0010376 21.9557 0.0010376 32.9336 0.0010376C32.9336 16.7965 32.9336 33.592 32.9336 50.4531C21.9557 50.4531 10.9779 50.4531 0 50.4531ZM17.952 35.2978C17.6937 35.2978 17.5 35.3634 17.2417 35.429C16.6605 35.5602 16.8542 35.6259 16.5314 35.1666C16.4022 34.9698 16.2731 34.773 16.0793 34.5761C16.0148 34.9042 16.0148 35.2322 16.0148 35.5603C16.0148 35.7571 15.9502 35.8227 15.7565 35.8883C15.4336 35.9539 15.1753 36.0851 14.7878 36.2163C15.1753 36.3475 15.4982 36.4788 15.7565 36.5444C15.8856 36.61 15.9502 36.6756 15.9502 36.8724C15.9502 37.2004 15.9502 37.5285 15.9502 37.8565C16.2085 37.5941 16.4022 37.3973 16.5314 37.1348C16.6605 36.938 16.7897 36.8724 16.9834 37.0036C17.2417 37.1348 17.5646 37.2004 17.8229 37.266C17.6937 36.938 17.5 36.6756 17.3063 36.4787C17.1771 36.3475 17.1771 36.2163 17.3063 36.0851C17.6292 35.8227 17.7583 35.5602 17.952 35.2978ZM27.3801 29.7868C27.3801 29.7868 27.3801 29.7212 27.3801 29.7868C27.0572 29.8524 26.7989 29.918 26.476 29.9836C26.2823 30.0492 26.1531 30.0492 26.024 29.8524C25.8948 29.59 25.7011 29.3275 25.5074 29.1307C25.4428 29.4588 25.4428 29.7868 25.4428 30.1148C25.4428 30.3117 25.3782 30.3773 25.1845 30.4429C24.8616 30.5085 24.6033 30.6397 24.2159 30.7709C24.6033 30.9021 24.8616 31.0333 25.1199 31.0989C25.3137 31.1646 25.4428 31.2958 25.3782 31.4926C25.3782 31.8206 25.3782 32.0831 25.3782 32.4111C25.6365 32.1487 25.8303 31.8862 26.024 31.6238C26.1531 31.4926 26.2177 31.427 26.4114 31.4926C26.6697 31.6238 26.9926 31.6894 27.2509 31.755C27.1218 31.427 26.928 31.1646 26.7343 30.9677C26.6052 30.8365 26.6052 30.7053 26.7343 30.5741C27.0572 30.3117 27.1863 30.0492 27.3801 29.7868ZM25.4428 21.3234C25.5074 21.389 25.5074 21.389 25.4428 21.3234C25.7011 21.1266 25.8948 20.8642 26.024 20.6018C26.1531 20.4049 26.2823 20.3393 26.476 20.4706C26.7343 20.6018 27.0572 20.6674 27.3155 20.733C27.3155 20.733 27.3155 20.6674 27.3801 20.6674C27.2509 20.4705 27.1218 20.2081 26.928 20.0769C26.7343 19.8801 26.7343 19.6833 26.928 19.4208C27.1218 19.224 27.2509 18.9616 27.4446 18.6991C27.0572 18.8304 26.7989 18.896 26.5406 19.0272C26.3469 19.0928 26.1531 19.0928 26.024 18.896C25.8948 18.6335 25.7011 18.4367 25.5074 18.1743C25.4428 18.5023 25.4428 18.8304 25.4428 19.1584C25.4428 19.3552 25.3782 19.4208 25.1845 19.4864C24.8616 19.552 24.6033 19.6833 24.2159 19.8145C24.6033 19.9457 24.9262 20.0769 25.1845 20.1425C25.3782 20.2081 25.4428 20.2737 25.4428 20.4706C25.4428 20.733 25.4428 21.061 25.4428 21.3234ZM20.4059 34.773C20.3413 34.773 20.3413 34.773 20.4059 34.773C20.6642 34.9042 20.9225 35.0354 21.2454 35.101C21.5037 35.1666 21.5683 35.2978 21.5037 35.4946C21.5037 35.8227 21.5037 36.0851 21.5037 36.4131C21.6974 36.2163 21.8911 36.0195 22.0203 35.8227C22.1494 35.5602 22.3432 35.429 22.666 35.6259C22.9244 35.7571 23.1827 35.8227 23.5055 35.8883C23.2472 35.5603 23.1181 35.2978 22.8598 35.0354C22.7306 34.9042 22.7306 34.773 22.8598 34.6417C23.0535 34.3793 23.2472 34.1169 23.5055 33.7888C23.1181 33.9201 22.7952 33.9857 22.5369 34.1169C22.3432 34.1825 22.2786 34.1169 22.1494 33.9857C21.9557 33.7232 21.762 33.4608 21.5683 33.1984C21.5037 33.5264 21.5037 33.8545 21.5037 34.1169C21.5037 34.3137 21.4391 34.4449 21.2454 34.5105C20.9225 34.5761 20.6642 34.6417 20.4059 34.773ZM20.4059 15.6812V15.7468C20.6642 15.8124 20.9225 15.9436 21.1808 16.0092C21.4391 16.0749 21.5037 16.2061 21.5037 16.4685C21.5037 16.7309 21.5037 17.059 21.5037 17.3214C21.762 17.059 21.9557 16.7965 22.1494 16.5341C22.214 16.4029 22.3432 16.3373 22.4723 16.4029C22.7952 16.5341 23.0535 16.5997 23.3764 16.6653C23.2472 16.3373 23.0535 16.0749 22.8598 15.878C22.7306 15.7468 22.7306 15.6156 22.8598 15.4844C23.0535 15.222 23.2472 14.9595 23.3764 14.6971C23.0535 14.7627 22.7952 14.8283 22.4723 14.8939C22.2786 14.9595 22.1494 14.9595 22.0203 14.7627C21.8911 14.5003 21.6974 14.2378 21.5037 14.041C21.4391 14.3691 21.4391 14.6315 21.4391 14.8939C21.4391 15.1564 21.3745 15.2876 21.1162 15.3532C20.9225 15.4844 20.6642 15.55 20.4059 15.6812ZM16.0793 12.5977C16.0148 12.9257 16.0148 13.2537 16.0148 13.6474C16.0148 13.8442 15.9502 13.9098 15.821 13.9754C15.4982 14.041 15.2399 14.1722 14.8524 14.3035C15.1107 14.3691 15.369 14.5003 15.5627 14.5659C16.2085 14.7627 16.0793 14.6315 16.0793 15.2876C16.0793 15.4844 16.0793 15.7468 16.0793 15.9436C16.3376 15.6812 16.5314 15.4844 16.6605 15.222C16.7897 15.0251 16.9188 14.9595 17.1771 15.0907C17.4354 15.222 17.6937 15.2876 18.0166 15.3532C17.8875 15.0251 17.6937 14.7627 17.5 14.5003C17.3708 14.3691 17.3708 14.2378 17.5 14.1066C17.6937 13.8442 17.8875 13.5818 18.0812 13.3193C18.0812 13.3193 18.0812 13.2537 18.0166 13.2537C17.7583 13.3193 17.5 13.3849 17.3063 13.5162C17.048 13.6474 16.8542 13.5818 16.7251 13.3193C16.4668 12.9913 16.2731 12.7945 16.0793 12.5977ZM5.16605 26.8345H5.23063C5.35978 26.6376 5.55351 26.4408 5.68266 26.1784C5.81181 25.916 6.00553 25.8504 6.32841 25.9816C6.58672 26.1128 6.78044 26.1128 7.03874 26.244C6.97417 26.0472 6.84502 25.8504 6.71587 25.6535C6.32841 25.0631 6.39299 25.2599 6.71587 24.8006C6.84502 24.6038 6.97417 24.4726 7.10332 24.2758C6.78044 24.3414 6.45756 24.407 6.19926 24.5382C6.00554 24.6038 5.94096 24.6038 5.81181 24.407C5.61808 24.1446 5.42435 23.8821 5.23063 23.5541C5.23063 23.9477 5.23063 24.2758 5.23063 24.5382C5.23063 24.8006 5.16605 24.9319 4.90775 24.9975C4.64945 25.0631 4.39114 25.1943 4.06827 25.2599C4.39114 25.4567 4.71402 25.5223 4.97232 25.6535C5.10148 25.6535 5.16605 25.7847 5.16605 25.8504C5.23063 26.1784 5.16605 26.5064 5.16605 26.8345ZM10.655 36.4131C10.9133 36.1507 11.107 35.9539 11.2362 35.6915C11.3653 35.4946 11.4299 35.4946 11.6236 35.5603C11.8819 35.6915 12.2048 35.7571 12.4631 35.8227C12.4631 35.8227 12.4631 35.7571 12.5277 35.7571C12.3339 35.4946 12.2048 35.2978 12.0111 35.0354C11.8819 34.9042 11.8819 34.773 12.0111 34.6417C12.2048 34.3793 12.3985 34.1169 12.5922 33.7888C12.2048 33.9201 11.8819 33.9857 11.559 34.1169C11.4299 34.1825 11.3007 34.1169 11.2362 33.9857C11.0424 33.7232 10.8487 33.4608 10.655 33.1984C10.5904 33.5264 10.5904 33.7888 10.5904 34.0513C10.5904 34.3137 10.5258 34.4449 10.2675 34.5105C10.0092 34.5761 9.68635 34.7073 9.36347 34.8386C9.68635 34.9698 9.94465 35.0354 10.203 35.101C10.5258 35.1666 10.655 35.2978 10.5904 35.6259C10.5904 35.8883 10.655 36.1507 10.655 36.4131ZM28.8007 24.2758C28.4779 24.3414 28.155 24.407 27.8967 24.4726C27.703 24.5382 27.6384 24.4726 27.5092 24.3414C27.3155 24.079 27.1218 23.8165 26.9926 23.5541C26.928 23.8821 26.928 24.1446 26.928 24.407C26.928 24.6694 26.8635 24.8006 26.6052 24.8662C26.3469 24.9319 26.0886 25.0631 25.8303 25.1287C26.0886 25.2599 26.4114 25.3911 26.6697 25.4567C26.8635 25.5223 26.9926 25.5879 26.928 25.8504C26.928 26.1784 26.928 26.4408 26.928 26.7689C27.1863 26.5064 27.3801 26.3096 27.5092 26.0472C27.6384 25.8504 27.7675 25.8503 27.8967 25.916C28.155 26.0472 28.4779 26.1128 28.7362 26.1784C28.607 25.8504 28.4133 25.5879 28.2196 25.3911C28.0904 25.2599 28.0904 25.1287 28.2196 24.9975C28.4779 24.8006 28.6716 24.5382 28.8007 24.2758ZM6.65129 21.3234H6.71587C6.90959 21.061 7.10332 20.8642 7.23247 20.6018C7.36162 20.4049 7.49077 20.4049 7.6845 20.4706C7.9428 20.6018 8.26568 20.6674 8.52398 20.733C8.39483 20.4049 8.20111 20.1425 8.00738 19.8801C7.87823 19.7489 7.87823 19.6177 8.00738 19.4864C8.20111 19.224 8.39483 18.9616 8.58856 18.6991C8.26568 18.7648 8.00738 18.8304 7.74908 18.896C7.49077 19.0272 7.36162 18.9616 7.1679 18.6991C7.03875 18.4367 6.84502 18.2399 6.71587 18.0431C6.65129 18.3711 6.65129 18.6335 6.65129 18.896C6.65129 19.1584 6.58672 19.2896 6.32841 19.3552C6.07011 19.4208 5.81181 19.552 5.55351 19.6177C5.87638 19.8145 6.13469 19.8801 6.45756 20.0113C6.65129 20.0769 6.71587 20.1425 6.71587 20.3393C6.65129 20.6674 6.65129 20.9954 6.65129 21.3234ZM10.655 17.2558H10.7196C10.8487 17.059 11.0424 16.8621 11.107 16.6653C11.3007 16.3373 11.4945 16.2717 11.8173 16.4685C12.0111 16.5997 12.2694 16.5997 12.5277 16.6653C12.3985 16.3373 12.2048 16.1405 12.0111 15.878C11.8819 15.7468 11.8819 15.6156 12.0111 15.4188C12.2048 15.1563 12.3985 14.8939 12.5277 14.6971C12.2048 14.7627 11.9465 14.8283 11.6882 14.8939C11.4299 15.0251 11.3007 14.9595 11.1716 14.6971C11.0424 14.4347 10.8487 14.2378 10.655 13.9754C10.5904 14.3035 10.5904 14.5659 10.5904 14.8939C10.5904 15.1564 10.5258 15.2876 10.2675 15.3532C10.0092 15.4188 9.68635 15.55 9.42804 15.6156C9.68635 15.7468 9.94465 15.878 10.203 15.9436C10.4613 16.0092 10.5258 16.1405 10.5258 16.4029C10.5904 16.7309 10.655 16.9934 10.655 17.2558ZM8.58856 29.7868C8.58856 29.7868 8.52398 29.7212 8.58856 29.7868C8.26568 29.8524 8.00738 29.918 7.74908 29.9836C7.49077 30.0492 7.36162 30.0492 7.23247 29.7868C7.10332 29.5244 6.90959 29.3275 6.78044 29.1307C6.78044 29.1307 6.71587 29.1307 6.71587 29.1963C6.71587 29.4588 6.71587 29.7868 6.71587 30.0492C6.71587 30.3117 6.65129 30.4429 6.39299 30.5085C6.07011 30.5741 5.81181 30.7053 5.42435 30.8365C5.74723 30.9677 6.00553 31.0333 6.26384 31.0989C6.58672 31.1646 6.71587 31.3614 6.65129 31.6894C6.65129 31.9518 6.65129 32.2143 6.65129 32.4111C6.84502 32.2143 7.03875 32.0174 7.1679 31.8206C7.29705 31.5582 7.49077 31.4926 7.74908 31.6238C8.00738 31.6894 8.20111 31.755 8.45941 31.8862C8.45941 31.8862 8.45941 31.8206 8.52398 31.8206C8.39483 31.6238 8.26568 31.427 8.13653 31.2302C7.87823 30.9677 7.87823 30.7709 8.13653 30.5085C8.33026 30.1804 8.45941 29.9836 8.58856 29.7868Z" fill="white"/>
<path d="M31.366 124.077H31.9331V127.246H26.6V124.077H27.1671V126.618H28.922V124.221H29.4891V126.618H31.366V124.077ZM31.9331 122.175V122.746H26.6V122.147L30.8708 120.345V120.323L26.6 118.533V117.926H31.9331V118.493H27.9602V118.533L31.524 120.054V120.614L27.9602 122.147V122.175H31.9331ZM26.6 116.394V114.481C26.6 113.978 26.7508 113.573 27.0522 113.264C27.3537 112.955 27.7509 112.801 28.2437 112.801C28.7366 112.801 29.1326 112.955 29.4316 113.264C29.7307 113.573 29.8803 113.978 29.8803 114.481V115.766H31.9331V116.394H26.6ZM27.1599 115.766H29.3204V114.929C29.3204 114.764 29.3144 114.618 29.3025 114.492C29.2881 114.365 29.2678 114.243 29.2414 114.125C29.2127 114.008 29.1733 113.91 29.123 113.831C29.0704 113.752 29.0046 113.682 28.9256 113.619C28.8443 113.557 28.7474 113.513 28.6349 113.487C28.5225 113.458 28.3921 113.444 28.2437 113.444C27.8992 113.444 27.6324 113.536 27.4434 113.72C27.2544 113.904 27.1599 114.165 27.1599 114.502V115.766ZM28.8933 111.308H29.6936C29.9903 111.308 30.2547 111.27 30.4868 111.193C30.7189 111.117 30.9067 111.011 31.0502 110.878C31.1914 110.741 31.2979 110.586 31.3696 110.411C31.4414 110.234 31.4773 110.038 31.4773 109.822C31.4773 109.609 31.4414 109.413 31.3696 109.234C31.2979 109.054 31.1914 108.896 31.0502 108.76C30.9067 108.621 30.7189 108.515 30.4868 108.441C30.2547 108.367 29.9903 108.329 29.6936 108.329H28.8933C28.3047 108.329 27.8514 108.468 27.5331 108.746C27.2149 109.021 27.0558 109.38 27.0558 109.822C27.0558 110.26 27.2137 110.618 27.5296 110.895C27.8454 111.171 28.3 111.308 28.8933 111.308ZM29.6936 111.929H28.8933C28.1468 111.929 27.5595 111.738 27.1312 111.355C26.7029 110.972 26.4888 110.46 26.4888 109.819C26.4888 109.175 26.7017 108.663 27.1276 108.283C27.5535 107.9 28.1421 107.709 28.8933 107.709H29.6936C30.4401 107.709 31.0191 107.901 31.4306 108.286C31.8398 108.669 32.0443 109.184 32.0443 109.83C32.0443 110.478 31.8398 110.99 31.4306 111.366C31.0191 111.741 30.4401 111.929 29.6936 111.929ZM31.9331 104.974V105.519L26.6 106.998V106.266L30.9462 105.243V105.214L26.6 104.145V103.481L30.9462 102.411V102.383L26.6 101.36V100.628L31.9331 102.106V102.659L27.63 103.8V103.833L31.9331 104.974ZM31.366 96.5364H31.9331V99.7054H26.6L26.6 96.5364H27.1671V99.0773H28.922V96.68H29.4891V99.0773H31.366V96.5364ZM26.6 93.328C26.6 93.0456 26.6443 92.7932 26.7328 92.5707C26.819 92.3482 26.9362 92.1711 27.0845 92.0395C27.2305 91.908 27.3956 91.8087 27.5798 91.7417C27.764 91.6747 27.9626 91.6412 28.1755 91.6412C28.5751 91.6412 28.8969 91.7369 29.141 91.9283C29.385 92.1197 29.5585 92.3554 29.6613 92.6353L31.9331 91.5443L31.9331 92.2621L29.7905 93.2526V94.5984H31.9331V95.2265H26.6V93.328ZM29.2307 94.5984V93.432C29.2307 93.054 29.1433 92.7681 28.9687 92.5743C28.794 92.3805 28.5452 92.2836 28.2222 92.2836C27.8777 92.2836 27.6145 92.3829 27.4327 92.5815C27.2508 92.7801 27.1599 93.054 27.1599 93.4033V94.5984H29.2307ZM28.0571 86.2364V86.85H28.0356C27.6073 86.85 27.2424 86.7017 26.941 86.405C26.6395 86.1084 26.4888 85.704 26.4888 85.192C26.4888 84.7039 26.6264 84.3103 26.9015 84.0113C27.1743 83.7122 27.52 83.5626 27.9387 83.5626C28.0966 83.5626 28.2449 83.583 28.3837 83.6237C28.5201 83.6619 28.666 83.7313 28.8215 83.8318C28.9747 83.9299 29.1003 84.0196 29.1984 84.101C29.2941 84.1799 29.4364 84.302 29.6254 84.467L31.3337 85.9457H31.3804V83.4657H31.9331V86.8321H31.5383L29.1984 84.8188C29.05 84.6872 28.9292 84.5855 28.8359 84.5137C28.7402 84.4419 28.6134 84.3713 28.4555 84.302C28.2952 84.2326 28.1373 84.1979 27.9817 84.1979C27.6922 84.1979 27.4626 84.2924 27.2927 84.4814C27.1204 84.6704 27.0343 84.9121 27.0343 85.2063C27.0343 85.5198 27.1312 85.7698 27.325 85.9564C27.5188 86.143 27.7556 86.2364 28.0356 86.2364H28.0571ZM31.4773 82.3676C31.329 82.3676 31.2034 82.3173 31.1005 82.2168C30.9976 82.1139 30.9462 81.9895 30.9462 81.8436C30.9462 81.6905 30.9964 81.5636 31.0969 81.4632C31.1974 81.3603 31.3242 81.3088 31.4773 81.3088C31.6256 81.3088 31.7501 81.3603 31.8505 81.4632C31.951 81.5636 32.0013 81.6905 32.0013 81.8436C32.0013 81.9895 31.951 82.1139 31.8505 82.2168C31.7501 82.3173 31.6256 82.3676 31.4773 82.3676ZM29.184 79.5108H29.3563C30.019 79.5108 30.5406 79.3996 30.921 79.1771C31.3014 78.9521 31.4917 78.6471 31.4917 78.2619C31.4917 77.8743 31.3014 77.568 30.921 77.3431C30.5406 77.1158 30.019 77.0022 29.3563 77.0022H29.184C28.5213 77.0022 27.9985 77.1158 27.6157 77.3431C27.2329 77.568 27.0415 77.8743 27.0415 78.2619C27.0415 78.6471 27.2329 78.9521 27.6157 79.1771C27.9985 79.3996 28.5213 79.5108 29.184 79.5108ZM29.3635 80.1317H29.1768C28.3562 80.1317 27.703 79.9666 27.2173 79.6364C26.7316 79.3039 26.4888 78.8445 26.4888 78.2583C26.4888 77.6697 26.7316 77.2115 27.2173 76.8838C27.703 76.5536 28.3562 76.3885 29.1768 76.3885H29.3635C30.1841 76.3885 30.8361 76.5536 31.3194 76.8838C31.8027 77.2115 32.0443 77.6697 32.0443 78.2583C32.0443 78.8445 31.8027 79.3039 31.3194 79.6364C30.8361 79.9666 30.1841 80.1317 29.3635 80.1317Z" fill="white"/>
<path d="M0.387589 127.277L0.387589 124.522H12.9798V127.277H0.387589Z" fill="white"/>
<path d="M7.62013 112.648H12.8508L12.9153 115.338H7.62013C6.13489 115.338 5.55371 116.125 5.48914 117.24C5.48914 119.209 7.62013 119.209 7.62013 119.209H12.9153L12.8508 121.898H7.74928C7.74928 121.898 3.16441 121.505 3.16441 117.109C3.22899 115.206 5.16626 112.648 7.62013 112.648Z" fill="white"/>
<path d="M3.29342 111.336V110.155H0.839546L0.839546 107.399H3.29342V105.169L5.55357 105.038V107.399H9.1698C10.2676 107.399 10.5905 107.137 10.5905 106.547C10.5905 106.022 10.4613 105.169 10.4613 105.169H12.5923C12.5923 105.169 13.1735 106.022 13.1735 107.334C13.1735 109.04 12.334 110.155 10.3967 110.155H5.55357V111.336H3.29342Z" fill="white"/>
<path d="M8.20117 94.0143C8.3949 94.0143 8.71777 94.0143 9.04065 94.0143V100.772C9.81556 100.575 10.9133 100.116 10.9133 98.738C10.9133 97.1634 9.94471 96.0481 9.94471 96.0481L11.3008 94.4735C11.3008 94.4735 13.1089 95.8513 13.1089 98.41C13.1089 101.428 10.9133 103.527 8.33032 103.527C5.74729 103.527 3.09969 101.953 3.09969 98.6068C3.16427 95.7201 5.55357 94.0143 8.20117 94.0143ZM7.36169 96.8354C6.58678 96.901 5.29527 97.2946 5.29527 98.738C5.29527 100.181 6.58678 100.772 7.36169 100.837V96.8354Z" fill="white"/>
<path d="M3.16441 86.0094H6.00574C6.00574 86.0094 6.07032 87.6496 6.58692 88.1088C7.1681 88.5681 7.1681 88.6337 7.36183 88.7649C8.45962 89.5522 12.9153 89.1586 12.9153 89.1586V91.9141H3.35814V89.2242H5.10168C5.10168 89.2242 3.16441 88.3713 3.16441 86.7311C3.16441 85.8126 3.16441 86.0094 3.16441 86.0094Z" fill="white"/>
<path d="M12.2694 62.1309C12.2694 64.4271 10.3967 66.4609 7.68456 66.4609C4.97239 66.4609 3.09969 64.4271 3.09969 62.1309C3.09969 60.2938 4.58493 58.9817 4.58493 58.9817L3.29342 59.0473V56.2918H11.43C14.465 56.2918 15.7565 58.8505 15.7565 61.3436C15.7565 63.9023 14.7233 65.9361 14.7233 65.9361L12.7215 65.0176C12.7215 65.0176 13.5609 63.771 13.5609 62.0652C13.5609 60.2938 13.3672 59.3097 11.6237 59.0473L10.5259 58.9161C10.9779 59.2441 12.2694 60.6875 12.2694 62.1309Z" fill="white"/>
<path d="M3.16441 78.4H6.00574C6.00574 78.4 6.07032 80.0402 6.58692 80.4995C7.1681 80.9587 7.1681 81.0243 7.36183 81.1555C8.45962 81.9428 12.9153 81.5492 12.9153 81.5492V84.3047H3.35814V81.6148H5.10168C5.10168 81.6148 3.16441 80.7619 3.16441 79.1217C3.16441 78.2688 3.16441 78.4 3.16441 78.4Z" fill="white"/>
<path d="M8.20117 67.7057C8.3949 67.7057 8.71777 67.7057 9.04065 67.7057V74.4632C9.81556 74.2664 10.9133 73.8072 10.9133 72.4294C10.9133 70.8548 9.94471 69.7395 9.94471 69.7395L11.3008 68.1649C11.3008 68.1649 13.1089 69.5427 13.1089 72.1014C13.1089 75.1193 10.9133 77.2188 8.33032 77.2188C5.74729 77.2188 3.09969 75.6442 3.09969 72.2982C3.16427 69.4115 5.55357 67.7057 8.20117 67.7057ZM7.36169 70.5268C6.58678 70.5924 5.29527 70.9861 5.29527 72.4294C5.29527 73.8728 6.58678 74.4632 7.36169 74.5288V70.5268Z" fill="white"/>
<path d="M9.88007 61.3436C9.88007 60.1116 8.89707 59.1129 7.68449 59.1129C6.47191 59.1129 5.48892 60.1116 5.48892 61.3436C5.48892 62.5755 6.47191 63.5742 7.68449 63.5742C8.89707 63.5742 9.88007 62.5755 9.88007 61.3436Z" fill="#548687"/>
</svg>
