<svg width="128" height="35" viewBox="0 0 128 35" fill="none" xmlns="http://www.w3.org/2000/svg">
<path d="M1.5742 23.054C1.24616 23.054 0.918125 23.054 0.590088 23.054C0.590088 21.1167 0.590088 19.1795 0.590088 17.2422C0.918125 17.2422 1.18055 17.2422 1.50859 17.2422C1.5742 17.2422 1.70541 17.3713 1.77102 17.4359C2.82074 18.7274 3.80485 20.0189 4.85457 21.3105C4.92018 21.375 4.98578 21.4396 5.05139 21.5688C5.05139 20.0835 5.05139 18.6629 5.05139 17.2422C5.37943 17.2422 5.70746 17.2422 6.0355 17.2422C6.0355 19.1795 6.0355 21.1167 6.0355 23.054C5.70746 23.054 5.37943 23.054 5.05139 23.054C4.98578 23.054 4.85457 22.9248 4.78896 22.8603C3.73924 21.5688 2.75513 20.2772 1.77102 18.9857C1.70541 18.9212 1.70541 18.9212 1.5742 18.792C1.5742 20.2772 1.5742 21.6333 1.5742 23.054Z" fill="#548687"/>
<path d="M47.4997 21.0511C47.9589 21.6969 48.4838 22.3426 49.0086 23.1175C48.5494 23.1175 48.2213 23.1175 47.8277 23.1175C47.7621 23.1175 47.6309 22.9884 47.6309 22.9238C47.2372 22.4072 46.8436 21.8906 46.4499 21.374C46.3843 21.3094 46.2531 21.1803 46.1219 21.1803C45.7939 21.1803 45.4002 21.1803 45.0066 21.1803C45.0066 21.826 45.0066 22.4718 45.0066 23.1175C44.6785 23.1175 44.3505 23.1175 44.0225 23.1175C44.0225 21.1803 44.0225 19.243 44.0225 17.3703L44.0881 17.3057C45.2034 17.3057 46.3187 17.1766 47.434 17.4349C48.2869 17.6286 48.6806 18.1452 48.7462 18.9847C48.7462 19.5013 48.7462 20.0179 48.4182 20.4054C48.1557 20.5991 47.8277 20.7928 47.4997 21.0511ZM45.0066 20.2116C45.6626 20.2116 46.2531 20.2116 46.8436 20.2116C47.1716 20.2116 47.4997 20.0179 47.6309 19.6304C47.9589 18.8555 47.5653 18.2744 46.778 18.1452H46.7124C46.1875 18.1452 45.597 18.1452 45.0722 18.1452C45.0066 18.791 45.0066 19.5013 45.0066 20.2116Z" fill="#548687"/>
<path d="M58.0624 19.2446C58.0624 19.0509 58.0624 18.8572 58.128 18.6634C58.4561 18.6634 58.7185 18.6634 59.0465 18.6634C59.0465 18.7926 59.0465 18.8572 59.0465 18.9863C59.0465 20.1487 59.0465 21.2465 59.0465 22.4088C59.0465 24.4752 57.2751 25.573 55.3725 24.6044C55.2413 24.5398 55.0445 24.4107 54.9133 24.2815C55.0445 24.0232 55.2413 23.8295 55.3725 23.5712C56.1598 24.0878 56.9471 24.2815 57.7344 23.7649C58.3249 23.3775 58.1936 22.7317 58.1936 22.0859C57.8656 22.4734 57.472 22.7963 57.0127 22.8609C55.8318 22.99 54.7821 22.2151 54.6509 21.0527C54.5852 20.2778 54.7821 19.5675 55.3725 19.0509C56.1598 18.4051 57.2095 18.4697 57.9312 19.1155C57.9312 19.1155 57.9312 19.18 58.0624 19.2446ZM55.5037 20.6653C55.5037 21.4402 56.0286 22.0214 56.7503 22.0214C57.472 22.0214 58.0624 21.4402 58.0624 20.6653C58.0624 19.8904 57.472 19.3092 56.7503 19.3092C56.0286 19.3092 55.5037 19.8904 55.5037 20.6653Z" fill="#548687"/>
<path d="M26.177 22.2767C26.4394 21.9538 26.6363 21.7601 26.7675 21.5663C27.2923 21.7601 27.7516 22.083 28.2764 22.2121C28.6045 22.2767 28.9981 22.2121 29.3262 22.1475C29.5886 22.083 29.7854 21.8246 29.7854 21.5663C29.7854 21.2435 29.6542 21.0497 29.3918 20.9206C29.0637 20.7914 28.6701 20.7269 28.342 20.5977C27.9484 20.4686 27.5548 20.404 27.2267 20.2103C26.177 19.6291 26.177 18.1438 27.2267 17.4981C28.1452 16.9169 29.851 17.1106 30.6383 17.8855C30.5071 18.1438 30.3103 18.3376 30.1134 18.5959C29.5886 18.273 29.0637 18.0793 28.4733 18.0793C28.2764 18.0793 28.0796 18.1438 27.9484 18.2084C27.686 18.273 27.5548 18.4667 27.5548 18.7896C27.5548 19.0479 27.686 19.3062 27.9484 19.4354C28.342 19.5645 28.7357 19.6937 29.0637 19.8228C29.3918 19.952 29.6542 20.0165 29.9822 20.1457C30.5727 20.404 30.8351 20.856 30.9007 21.5018C30.9007 22.1475 30.6383 22.6641 30.0478 22.987C29.1949 23.439 28.342 23.3745 27.4891 23.0516C27.0299 22.7933 26.6363 22.4704 26.177 22.2767Z" fill="#548687"/>
<path d="M20.0102 23.0527C19.6821 23.0527 19.4197 23.0527 19.0917 23.0527C19.0917 20.9862 19.0917 18.9844 19.0917 16.918C19.4197 16.918 19.6821 16.918 20.0102 16.918C20.0102 17.6929 20.0102 18.4678 20.0102 19.3718C20.1414 19.2427 20.207 19.1781 20.207 19.1135C21.0599 18.2095 22.7001 18.4678 23.0937 19.5656C23.1593 19.7593 23.2249 19.953 23.2249 20.2113C23.2249 21.1154 23.2249 21.9549 23.2249 22.8589C23.2249 22.9235 23.2249 22.9881 23.2249 23.0527C22.8969 23.0527 22.6345 23.0527 22.3064 23.0527C22.3064 22.9235 22.3064 22.8589 22.3064 22.7298C22.3064 22.0194 22.3064 21.2445 22.3064 20.5342C22.3064 19.8239 21.9128 19.3718 21.3223 19.3718C20.6663 19.3718 20.0758 19.8239 20.0758 20.5342C20.0758 21.2445 20.0758 22.0194 20.0758 22.7298C20.0102 22.8589 20.0102 22.9235 20.0102 23.0527Z" fill="#548687"/>
<path d="M50.386 21.2434C50.4516 21.76 50.714 22.0183 51.1077 22.1475C51.6981 22.4704 52.4198 22.3412 53.1415 21.8246C53.2727 22.0183 53.4695 22.1475 53.6663 22.3412C53.2727 22.7287 52.8791 22.9224 52.3542 23.0515C51.6325 23.1807 50.9764 23.1161 50.386 22.6641C49.5987 22.0829 49.2707 20.9851 49.5987 19.9519C49.8611 19.1124 50.7796 18.5312 51.7637 18.5312C52.8134 18.5312 53.6663 19.1124 53.8632 20.0165C53.9288 20.2748 53.9288 20.5977 53.9288 20.9206C53.9288 21.1789 53.8632 21.2434 53.6007 21.2434C52.6166 21.2434 51.6981 21.2434 50.714 21.2434C50.5828 21.2434 50.5172 21.2434 50.386 21.2434ZM52.9447 20.5331C53.0103 19.8873 52.551 19.4353 51.8293 19.3707C51.042 19.3062 50.386 19.8228 50.386 20.5331C51.2389 20.5331 52.0918 20.5331 52.9447 20.5331Z" fill="#548687"/>
<path d="M35.9524 21.2437C34.7715 21.2437 33.6562 21.2437 32.4752 21.2437C32.5408 21.7603 32.8033 22.0186 33.1969 22.2123C33.9186 22.4706 34.5747 22.4061 35.1651 21.8249C35.362 22.0186 35.4932 22.2123 35.69 22.4061C34.7715 23.4393 32.4752 23.5038 31.7536 21.8895C31.1631 20.5979 31.6223 18.919 33.3937 18.5961C34.6403 18.3378 35.8212 19.0481 36.018 20.1459C35.9524 20.5334 35.9524 20.8562 35.9524 21.2437ZM35.0339 20.5334C35.0339 20.0813 34.9027 19.7585 34.5091 19.5647C33.9842 19.2419 33.3937 19.3064 32.9345 19.6293C32.6065 19.823 32.4096 20.1459 32.4752 20.5334C33.3281 20.5334 34.181 20.5334 35.0339 20.5334Z" fill="#548687"/>
<path d="M40.4799 23.0515C40.2174 23.0515 39.955 23.0515 39.6926 23.0515C39.6926 22.8578 39.6926 22.7287 39.6926 22.5995C39.3645 22.7287 39.0365 22.987 38.6429 23.0515C38.3804 23.1161 38.0524 23.1161 37.7244 23.0515C36.9371 22.9224 36.4778 22.3412 36.5434 21.5663C36.609 20.856 37.0683 20.4039 37.9212 20.3394C38.3804 20.2748 38.9053 20.3394 39.3645 20.3394C39.5614 20.3394 39.627 20.2748 39.627 20.0811C39.5614 19.5645 39.2989 19.3062 38.7085 19.3062C38.1836 19.3062 37.7244 19.4999 37.3307 19.7582C37.1995 19.5645 37.0683 19.3707 36.9371 19.177C37.3307 18.7896 37.8556 18.5958 38.3804 18.5313C38.8397 18.5313 39.2989 18.5312 39.6926 18.6604C40.3487 18.8541 40.6111 19.3707 40.6111 20.0165C40.6111 20.9851 40.6111 21.9538 40.6111 22.8578C40.5455 22.987 40.4799 22.987 40.4799 23.0515ZM39.5614 20.9851C39.0365 20.9851 38.446 21.0497 37.9212 21.1143C37.6588 21.1143 37.4619 21.308 37.4619 21.6309C37.4619 21.8892 37.5275 22.1475 37.79 22.2121C38.2492 22.4058 38.7085 22.4058 39.1677 22.0829C39.5614 21.8892 39.627 21.5017 39.5614 20.9851Z" fill="#548687"/>
<path d="M64.4921 23.118C63.1144 23.118 62.1302 22.1493 62.1302 20.8578C62.1302 19.5663 63.1144 18.5977 64.4921 18.5977C65.8699 18.5977 66.854 19.5663 66.9196 20.8578C66.854 22.1493 65.8699 23.118 64.4921 23.118ZM65.9355 20.8578C65.9355 20.0183 65.345 19.3726 64.4921 19.3726C63.6392 19.3726 63.0488 19.9537 63.0488 20.8578C63.0488 21.6973 63.6392 22.343 64.4921 22.2785C65.345 22.2785 65.9355 21.6973 65.9355 20.8578Z" fill="#548687"/>
<path d="M9.31609 23.118C7.93833 23.118 6.95422 22.1493 6.95422 20.8578C6.95422 19.5663 8.00394 18.5977 9.3817 18.5977C10.7595 18.5977 11.7436 19.5663 11.7436 20.8578C11.678 22.1493 10.6938 23.118 9.31609 23.118ZM10.7595 20.8578C10.7595 20.0183 10.169 19.3726 9.31609 19.3726C8.46319 19.3726 7.87273 20.0183 7.87273 20.8578C7.87273 21.6973 8.46319 22.343 9.31609 22.343C10.169 22.343 10.7595 21.6973 10.7595 20.8578Z" fill="#548687"/>
<path d="M68.5596 23.0542C68.2316 23.0542 67.9691 23.0542 67.6411 23.0542C67.6411 21.5689 67.6411 20.1483 67.6411 18.663C67.9035 18.663 68.2316 18.663 68.5596 18.663C68.5596 18.8567 68.5596 19.1151 68.5596 19.3734C68.6252 19.3088 68.6908 19.2442 68.7564 19.2442C69.2813 18.5984 70.0686 18.4047 70.8559 18.7276C71.4463 18.9859 71.7744 19.4379 71.7744 20.0191C71.84 21.0523 71.7744 22.0855 71.7744 23.1187C71.4463 23.1187 71.1839 23.1187 70.8559 23.1187C70.8559 22.9896 70.8559 22.925 70.8559 22.7959C70.8559 22.0855 70.8559 21.3752 70.8559 20.6003C70.8559 19.8254 70.5278 19.4379 69.8718 19.4379C69.2157 19.3734 68.6908 19.8254 68.6252 20.4711C68.5596 20.9232 68.6252 21.3752 68.5596 21.8272C68.5596 22.1501 68.5596 22.6021 68.5596 23.0542Z" fill="#548687"/>
<path d="M15.8767 19.3732C15.6798 19.3732 15.5486 19.3732 15.3518 19.3732C15.3518 19.1149 15.3518 18.9212 15.3518 18.6629C15.5486 18.6629 15.6798 18.6629 15.8767 18.5983C15.8767 18.1462 15.8767 17.6942 15.8767 17.2422C16.2047 17.2422 16.4671 17.2422 16.7952 17.2422C16.7952 17.6942 16.7952 18.1462 16.7952 18.5983C17.1888 18.5983 17.5825 18.5983 17.9761 18.5983C17.9761 18.8566 17.9761 19.1149 17.9761 19.3732C17.5825 19.3732 17.1888 19.3732 16.7952 19.3732C16.7952 19.9544 16.7952 20.471 16.7952 21.0521C16.7952 21.2459 16.7952 21.5042 16.7952 21.6979C16.7952 21.9562 16.8608 22.2145 17.1232 22.3437C17.3856 22.4728 17.6481 22.4082 17.8449 22.2791C17.9105 22.2145 17.9105 22.2145 17.9761 22.1499C18.1073 22.3437 18.2385 22.5374 18.3697 22.7311C17.9761 23.1831 17.32 23.3123 16.7296 23.1186C16.1391 22.9248 15.8111 22.4082 15.8111 21.6979C15.8767 20.8584 15.8767 20.1481 15.8767 19.3732Z" fill="#548687"/>
<path d="M14.8271 19.5017C14.3022 19.5017 13.843 19.6954 13.6461 20.1475C13.5149 20.4704 13.4493 20.8578 13.3837 21.2453C13.3181 21.8264 13.3837 22.4076 13.3837 23.0534C13.0557 23.0534 12.7932 23.0534 12.4652 23.0534C12.4652 21.5681 12.4652 20.1475 12.4652 18.6622C12.7276 18.6622 13.0557 18.6622 13.3837 18.6622C13.3837 18.9205 13.3837 19.1788 13.3837 19.5017C13.7774 18.9851 14.171 18.5977 14.8271 18.5977C14.8271 18.856 14.8271 19.1143 14.8271 19.5017Z" fill="#548687"/>
<path d="M61.1463 23.0552C60.8182 23.0552 60.5558 23.0552 60.2278 23.0552C60.2278 21.57 60.2278 20.1493 60.2278 18.6641C60.4902 18.6641 60.8182 18.6641 61.1463 18.6641C61.1463 20.0847 61.1463 21.57 61.1463 23.0552Z" fill="#548687"/>
<path d="M61.2771 17.3077C61.2771 17.6306 61.0147 17.8889 60.6867 17.8889C60.3586 17.8889 60.0962 17.6306 60.0962 17.3077C60.0962 16.9849 60.3586 16.7266 60.6867 16.7266C61.0147 16.7266 61.2771 16.9849 61.2771 17.3077Z" fill="#548687"/>
<path d="M77.548 0C94.3435 0 111.139 0 128 0C128 10.9779 128 21.9557 128 32.9336C111.205 32.9336 94.4091 32.9336 77.548 32.9336C77.548 21.9557 77.548 10.9779 77.548 0ZM92.7033 17.952C92.7033 17.6937 92.6377 17.5 92.5721 17.2417C92.4409 16.6605 92.3752 16.8542 92.8345 16.5314C93.0313 16.4022 93.2281 16.2731 93.425 16.0793C93.0969 16.0148 92.7689 16.0148 92.4408 16.0148C92.244 16.0148 92.1784 15.9502 92.1128 15.7565C92.0472 15.4336 91.916 15.1753 91.7848 14.7878C91.6536 15.1753 91.5223 15.4982 91.4567 15.7565C91.3911 15.8856 91.3255 15.9502 91.1287 15.9502C90.8007 15.9502 90.4726 15.9502 90.1446 15.9502C90.407 16.2085 90.6038 16.4022 90.8663 16.5314C91.0631 16.6605 91.1287 16.7897 90.9975 16.9834C90.8663 17.2417 90.8007 17.5646 90.7351 17.8229C91.0631 17.6937 91.3255 17.5 91.5223 17.3063C91.6536 17.1771 91.7848 17.1771 91.916 17.3063C92.1784 17.6292 92.4409 17.7583 92.7033 17.952ZM98.2143 27.3801C98.2143 27.3801 98.2799 27.3801 98.2143 27.3801C98.1487 27.0572 98.0831 26.7989 98.0175 26.476C97.9519 26.2823 97.9519 26.1531 98.1487 26.024C98.4111 25.8948 98.6736 25.7011 98.8704 25.5074C98.5423 25.4428 98.2143 25.4428 97.8863 25.4428C97.6894 25.4428 97.6238 25.3782 97.5582 25.1845C97.4926 24.8616 97.3614 24.6033 97.2302 24.2159C97.099 24.6033 96.9678 24.8616 96.9022 25.1199C96.8365 25.3137 96.7053 25.4428 96.5085 25.3782C96.1805 25.3782 95.918 25.3782 95.59 25.3782C95.8524 25.6365 96.1149 25.8303 96.3773 26.024C96.5085 26.1531 96.5741 26.2177 96.5085 26.4114C96.3773 26.6697 96.3117 26.9926 96.2461 27.2509C96.5741 27.1218 96.8365 26.928 97.0334 26.7343C97.1646 26.6052 97.2958 26.6052 97.427 26.7343C97.6894 27.0572 97.9519 27.1863 98.2143 27.3801ZM106.678 25.4428C106.612 25.5074 106.612 25.5074 106.678 25.4428C106.874 25.7011 107.137 25.8948 107.399 26.024C107.596 26.1531 107.662 26.2823 107.531 26.476C107.399 26.7343 107.334 27.0572 107.268 27.3155C107.268 27.3155 107.334 27.3155 107.334 27.3801C107.531 27.2509 107.793 27.1218 107.924 26.928C108.121 26.7343 108.318 26.7343 108.58 26.928C108.777 27.1218 109.04 27.2509 109.302 27.4446C109.171 27.0572 109.105 26.7989 108.974 26.5406C108.908 26.3469 108.908 26.1531 109.105 26.024C109.368 25.8948 109.564 25.7011 109.827 25.5074C109.499 25.4428 109.171 25.4428 108.843 25.4428C108.646 25.4428 108.58 25.3782 108.515 25.1845C108.449 24.8616 108.318 24.6033 108.187 24.2159C108.055 24.6033 107.924 24.9262 107.859 25.1845C107.793 25.3782 107.727 25.4428 107.531 25.4428C107.268 25.4428 106.94 25.4428 106.678 25.4428ZM93.2281 20.4059C93.2281 20.3413 93.2281 20.3413 93.2281 20.4059C93.0969 20.6642 92.9657 20.9225 92.9001 21.2454C92.8345 21.5037 92.7033 21.5683 92.5065 21.5037C92.1784 21.5037 91.916 21.5037 91.588 21.5037C91.7848 21.6974 91.9816 21.8911 92.1784 22.0203C92.4409 22.1494 92.5721 22.3432 92.3752 22.666C92.244 22.9244 92.1784 23.1827 92.1128 23.5055C92.4408 23.2472 92.7033 23.1181 92.9657 22.8598C93.0969 22.7306 93.2281 22.7306 93.3594 22.8598C93.6218 23.0535 93.8842 23.2472 94.2123 23.5055C94.081 23.1181 94.0154 22.7952 93.8842 22.5369C93.8186 22.3432 93.8842 22.2786 94.0154 22.1494C94.2779 21.9557 94.5403 21.762 94.8027 21.5683C94.4747 21.5037 94.1466 21.5037 93.8842 21.5037C93.6874 21.5037 93.5562 21.4391 93.4906 21.2454C93.425 20.9225 93.3594 20.6642 93.2281 20.4059ZM112.32 20.4059H112.254C112.189 20.6642 112.057 20.9225 111.992 21.1808C111.926 21.4391 111.795 21.5037 111.533 21.5037C111.27 21.5037 110.942 21.5037 110.68 21.5037C110.942 21.762 111.205 21.9557 111.467 22.1494C111.598 22.214 111.664 22.3432 111.598 22.4723C111.467 22.7952 111.401 23.0535 111.336 23.3764C111.664 23.2472 111.926 23.0535 112.123 22.8598C112.254 22.7306 112.385 22.7306 112.517 22.8598C112.779 23.0535 113.042 23.2472 113.304 23.3764C113.238 23.0535 113.173 22.7952 113.107 22.4723C113.042 22.2786 113.042 22.1494 113.238 22.0203C113.501 21.8911 113.763 21.6974 113.96 21.5037C113.632 21.4391 113.37 21.4391 113.107 21.4391C112.845 21.4391 112.714 21.3745 112.648 21.1162C112.517 20.9225 112.451 20.6642 112.32 20.4059ZM115.403 16.0793C115.075 16.0148 114.747 16.0148 114.354 16.0148C114.157 16.0148 114.091 15.9502 114.026 15.821C113.96 15.4982 113.829 15.2399 113.698 14.8524C113.632 15.1107 113.501 15.369 113.435 15.5627C113.238 16.2085 113.37 16.0793 112.714 16.0793C112.517 16.0793 112.254 16.0793 112.057 16.0793C112.32 16.3376 112.517 16.5314 112.779 16.6605C112.976 16.7897 113.042 16.9188 112.91 17.1771C112.779 17.4354 112.714 17.6937 112.648 18.0166C112.976 17.8875 113.238 17.6937 113.501 17.5C113.632 17.3708 113.763 17.3708 113.894 17.5C114.157 17.6937 114.419 17.8875 114.682 18.0812C114.682 18.0812 114.747 18.0812 114.747 18.0166C114.682 17.7583 114.616 17.5 114.485 17.3063C114.354 17.048 114.419 16.8542 114.682 16.7251C115.01 16.4668 115.207 16.2731 115.403 16.0793ZM101.167 5.16605V5.23063C101.363 5.35978 101.56 5.55351 101.823 5.68266C102.085 5.81181 102.151 6.00553 102.02 6.32841C101.888 6.58672 101.888 6.78044 101.757 7.03874C101.954 6.97417 102.151 6.84502 102.348 6.71587C102.938 6.32841 102.741 6.39299 103.2 6.71587C103.397 6.84502 103.529 6.97417 103.725 7.10332C103.66 6.78044 103.594 6.45756 103.463 6.19926C103.397 6.00554 103.397 5.94096 103.594 5.81181C103.857 5.61808 104.119 5.42435 104.447 5.23063C104.053 5.23063 103.725 5.23063 103.463 5.23063C103.2 5.23063 103.069 5.16605 103.004 4.90775C102.938 4.64945 102.807 4.39114 102.741 4.06827C102.544 4.39114 102.479 4.71402 102.348 4.97232C102.348 5.10148 102.216 5.16605 102.151 5.16605C101.823 5.23063 101.495 5.16605 101.167 5.16605ZM91.588 10.655C91.8504 10.9133 92.0472 11.107 92.3096 11.2362C92.5065 11.3653 92.5065 11.4299 92.4408 11.6236C92.3096 11.8819 92.244 12.2048 92.1784 12.4631C92.1784 12.4631 92.244 12.4631 92.244 12.5277C92.5065 12.3339 92.7033 12.2048 92.9657 12.0111C93.0969 11.8819 93.2281 11.8819 93.3594 12.0111C93.6218 12.2048 93.8842 12.3985 94.2123 12.5922C94.081 12.2048 94.0154 11.8819 93.8842 11.559C93.8186 11.4299 93.8842 11.3007 94.0154 11.2362C94.2779 11.0424 94.5403 10.8487 94.8027 10.655C94.4747 10.5904 94.2122 10.5904 93.9498 10.5904C93.6874 10.5904 93.5562 10.5258 93.4906 10.2675C93.425 10.0092 93.2937 9.68635 93.1625 9.36347C93.0313 9.68635 92.9657 9.94465 92.9001 10.203C92.8345 10.5258 92.7033 10.655 92.3752 10.5904C92.1128 10.5904 91.8504 10.655 91.588 10.655ZM103.725 28.8007C103.66 28.4779 103.594 28.155 103.529 27.8967C103.463 27.703 103.529 27.6384 103.66 27.5092C103.922 27.3155 104.185 27.1218 104.447 26.9926C104.119 26.928 103.857 26.928 103.594 26.928C103.332 26.928 103.2 26.8635 103.135 26.6052C103.069 26.3469 102.938 26.0886 102.872 25.8303C102.741 26.0886 102.61 26.4114 102.544 26.6697C102.479 26.8635 102.413 26.9926 102.151 26.928C101.823 26.928 101.56 26.928 101.232 26.928C101.495 27.1863 101.691 27.3801 101.954 27.5092C102.151 27.6384 102.151 27.7675 102.085 27.8967C101.954 28.155 101.888 28.4779 101.823 28.7362C102.151 28.607 102.413 28.4133 102.61 28.2196C102.741 28.0904 102.872 28.0904 103.004 28.2196C103.2 28.4779 103.463 28.6716 103.725 28.8007ZM106.678 6.65129V6.71587C106.94 6.90959 107.137 7.10332 107.399 7.23247C107.596 7.36162 107.596 7.49077 107.531 7.6845C107.399 7.9428 107.334 8.26568 107.268 8.52398C107.596 8.39483 107.859 8.20111 108.121 8.00738C108.252 7.87823 108.383 7.87823 108.515 8.00738C108.777 8.20111 109.04 8.39483 109.302 8.58856C109.236 8.26568 109.171 8.00738 109.105 7.74908C108.974 7.49077 109.04 7.36162 109.302 7.1679C109.564 7.03875 109.761 6.84502 109.958 6.71587C109.63 6.65129 109.368 6.65129 109.105 6.65129C108.843 6.65129 108.711 6.58672 108.646 6.32841C108.58 6.07011 108.449 5.81181 108.383 5.55351C108.187 5.87638 108.121 6.13469 107.99 6.45756C107.924 6.65129 107.859 6.71587 107.662 6.71587C107.334 6.65129 107.006 6.65129 106.678 6.65129ZM110.745 10.655V10.7196C110.942 10.8487 111.139 11.0424 111.336 11.107C111.664 11.3007 111.729 11.4945 111.533 11.8173C111.401 12.0111 111.401 12.2694 111.336 12.5277C111.664 12.3985 111.861 12.2048 112.123 12.0111C112.254 11.8819 112.386 11.8819 112.582 12.0111C112.845 12.2048 113.107 12.3985 113.304 12.5277C113.238 12.2048 113.173 11.9465 113.107 11.6882C112.976 11.4299 113.042 11.3007 113.304 11.1716C113.566 11.0424 113.763 10.8487 114.026 10.655C113.698 10.5904 113.435 10.5904 113.107 10.5904C112.845 10.5904 112.714 10.5258 112.648 10.2675C112.582 10.0092 112.451 9.68635 112.386 9.42804C112.254 9.68635 112.123 9.94465 112.057 10.203C111.992 10.4613 111.861 10.5258 111.598 10.5258C111.27 10.5904 111.008 10.655 110.745 10.655ZM98.2143 8.58856C98.2143 8.58856 98.2799 8.52398 98.2143 8.58856C98.1487 8.26568 98.0831 8.00738 98.0175 7.74908C97.9519 7.49077 97.9519 7.36162 98.2143 7.23247C98.4767 7.10332 98.6736 6.90959 98.8704 6.78044C98.8704 6.78044 98.8704 6.71587 98.8048 6.71587C98.5423 6.71587 98.2143 6.71587 97.9519 6.71587C97.6894 6.71587 97.5582 6.65129 97.4926 6.39299C97.427 6.07011 97.2958 5.81181 97.1646 5.42435C97.0334 5.74723 96.9678 6.00553 96.9022 6.26384C96.8365 6.58672 96.6397 6.71587 96.3117 6.65129C96.0493 6.65129 95.7868 6.65129 95.59 6.65129C95.7868 6.84502 95.9837 7.03875 96.1805 7.1679C96.4429 7.29705 96.5085 7.49077 96.3773 7.74908C96.3117 8.00738 96.2461 8.20111 96.1149 8.45941C96.1149 8.45941 96.1805 8.45941 96.1805 8.52398C96.3773 8.39483 96.5741 8.26568 96.7709 8.13653C97.0334 7.87823 97.2302 7.87823 97.4926 8.13653C97.8207 8.33026 98.0175 8.45941 98.2143 8.58856Z" fill="#548687"/>
<path d="M92.703 17.953C92.4406 17.7593 92.1782 17.6301 91.9814 17.4364C91.8501 17.3073 91.7189 17.3073 91.5877 17.4364C91.3253 17.6301 91.0629 17.7593 90.8004 17.953C90.866 17.6947 90.9316 17.3718 91.0629 17.1135C91.1285 16.9198 91.0629 16.7907 90.9316 16.6615C90.6692 16.4678 90.4068 16.3386 90.21 16.0803C90.538 16.0803 90.866 16.0803 91.1941 16.0803C91.3909 16.0803 91.4565 16.0158 91.5221 15.8866C91.5877 15.5637 91.7189 15.3054 91.8501 14.918C91.9814 15.3054 92.1126 15.5637 92.1782 15.8866C92.2438 16.0803 92.3094 16.1449 92.5062 16.1449C92.8343 16.1449 93.1623 16.1449 93.4903 16.2095C93.2935 16.3386 93.0967 16.4678 92.8999 16.6615C92.4406 16.9844 92.5062 16.8552 92.6374 17.3718C92.6374 17.501 92.703 17.6947 92.703 17.953Z" fill="white"/>
<path d="M98.2143 27.3809C97.9518 27.1872 97.6894 26.9934 97.427 26.7997C97.2958 26.6705 97.1645 26.6705 97.0333 26.7997C96.7709 26.9934 96.5085 27.1872 96.246 27.3163C96.3116 27.058 96.4429 26.7351 96.5085 26.4768C96.5741 26.2831 96.5741 26.2185 96.3773 26.0894C96.1148 25.8956 95.8524 25.7019 95.59 25.4436C95.918 25.4436 96.1804 25.4436 96.5085 25.4436C96.7709 25.4436 96.8365 25.379 96.9021 25.1853C96.9677 24.927 97.0989 24.6041 97.2301 24.2812C97.3614 24.6687 97.4926 24.9916 97.5582 25.2499C97.6238 25.4436 97.6894 25.5082 97.8862 25.5082C98.2143 25.5082 98.5423 25.5082 98.8703 25.5728C98.6079 25.7665 98.4111 25.9602 98.1487 26.0894C97.9518 26.2185 97.9518 26.3477 98.0174 26.5414C98.083 26.7997 98.2143 27.058 98.2143 27.3809C98.2799 27.3809 98.2143 27.3809 98.2143 27.3809Z" fill="white"/>
<path d="M106.678 25.4418C107.006 25.4418 107.334 25.4418 107.662 25.4418C107.859 25.4418 107.924 25.3772 107.99 25.1835C108.056 24.8606 108.187 24.6023 108.318 24.2148C108.449 24.6023 108.515 24.8606 108.646 25.1835C108.712 25.3772 108.777 25.4418 108.974 25.4418C109.302 25.4418 109.63 25.4418 109.958 25.5064C109.696 25.7001 109.499 25.8938 109.237 26.023C109.04 26.1521 108.974 26.2813 109.105 26.5396C109.237 26.7979 109.302 27.1207 109.433 27.4436C109.171 27.2499 108.909 27.1207 108.712 26.927C108.449 26.7333 108.318 26.7333 108.056 26.927C107.859 27.1207 107.662 27.2499 107.465 27.3791C107.465 27.3791 107.4 27.3791 107.4 27.3145C107.465 27.0562 107.531 26.7333 107.662 26.475C107.728 26.2813 107.662 26.1521 107.531 26.023C107.137 25.8938 106.875 25.7001 106.678 25.4418C106.612 25.5064 106.612 25.5064 106.678 25.4418Z" fill="white"/>
<path d="M93.2281 20.4039C93.2937 20.6622 93.4249 20.9851 93.4905 21.2434C93.5561 21.4371 93.6217 21.5663 93.8841 21.5017C94.2122 21.5017 94.4746 21.5017 94.8026 21.5663C94.5402 21.76 94.2778 21.9537 94.0154 22.1474C93.8841 22.2766 93.8185 22.3412 93.8841 22.5349C94.0154 22.8578 94.081 23.1161 94.2122 23.5035C93.8841 23.2452 93.6217 23.1161 93.3593 22.8578C93.2281 22.7286 93.0969 22.7286 92.9656 22.8578C92.7032 23.0515 92.4408 23.2452 92.1127 23.5035C92.244 23.1807 92.244 22.9223 92.3752 22.664C92.5064 22.3412 92.4408 22.1474 92.1784 22.0183C91.9815 21.8891 91.7847 21.6954 91.5879 21.5017C91.9159 21.5017 92.1784 21.5017 92.5064 21.5017C92.7032 21.5017 92.8344 21.4371 92.9 21.2434C92.9656 20.9205 93.0969 20.6622 93.2281 20.4039C93.2281 20.3393 93.2281 20.3393 93.2281 20.4039Z" fill="white"/>
<path d="M112.32 20.4062C112.385 20.6646 112.517 20.9229 112.582 21.1812C112.648 21.4395 112.779 21.5686 113.041 21.504C113.304 21.504 113.566 21.504 113.894 21.5686C113.632 21.7623 113.435 21.9561 113.173 22.0852C112.976 22.2144 112.976 22.3435 113.041 22.5372C113.173 22.7955 113.238 23.1184 113.238 23.4413C112.976 23.2476 112.713 23.1184 112.451 22.9247C112.32 22.7955 112.189 22.7955 112.057 22.9247C111.795 23.1184 111.533 23.3122 111.27 23.4413C111.336 23.1184 111.467 22.8601 111.533 22.5372C111.598 22.4081 111.533 22.2789 111.401 22.2144C111.139 22.0206 110.876 21.8269 110.614 21.5686C110.876 21.5686 111.204 21.5686 111.467 21.5686C111.729 21.5686 111.861 21.504 111.926 21.2457C111.992 20.9874 112.123 20.7291 112.189 20.4708C112.32 20.4063 112.32 20.4062 112.32 20.4062Z" fill="white"/>
<path d="M115.404 16.0787C115.141 16.2725 114.944 16.4016 114.682 16.5954C114.419 16.7245 114.419 16.9182 114.485 17.1765C114.616 17.4348 114.682 17.6931 114.748 17.8869C114.748 17.8869 114.682 17.8869 114.682 17.9514C114.419 17.7577 114.157 17.564 113.895 17.3703C113.763 17.2411 113.632 17.2411 113.501 17.3703C113.239 17.564 112.976 17.7577 112.648 17.8869C112.714 17.6286 112.779 17.3057 112.911 17.0474C112.976 16.8537 112.976 16.6599 112.779 16.5308C112.517 16.4016 112.32 16.2079 112.058 15.9496C112.254 15.9496 112.517 15.9496 112.714 15.9496C113.37 15.9496 113.239 16.0787 113.435 15.433C113.501 15.2393 113.567 15.0455 113.698 14.7227C113.829 15.1101 113.96 15.433 114.026 15.6913C114.091 15.8204 114.157 15.885 114.354 15.885C114.748 16.0142 115.076 16.0142 115.404 16.0787Z" fill="white"/>
<path d="M101.167 5.16419C101.495 5.16419 101.823 5.16419 102.151 5.16419C102.216 5.16419 102.413 5.03504 102.413 4.97047C102.544 4.64759 102.61 4.38928 102.807 4.06641C102.872 4.32471 103.004 4.58301 103.069 4.90589C103.135 5.16419 103.266 5.22877 103.528 5.22877C103.857 5.22877 104.119 5.22877 104.513 5.22877C104.185 5.48707 103.922 5.6808 103.66 5.80995C103.463 5.9391 103.463 6.00368 103.528 6.1974C103.66 6.45571 103.725 6.77858 103.791 7.10146C103.594 6.97231 103.463 6.84316 103.266 6.71401C102.741 6.39113 102.938 6.32655 102.413 6.71401C102.216 6.84316 102.085 6.97231 101.823 7.03689C101.888 6.77858 101.954 6.52028 102.085 6.32655C102.216 6.06825 102.151 5.87452 101.888 5.6808C101.626 5.55165 101.429 5.35792 101.232 5.22877C101.167 5.22877 101.167 5.22877 101.167 5.16419Z" fill="white"/>
<path d="M91.5879 10.6566C91.8503 10.6566 92.1127 10.6566 92.3752 10.6566C92.7032 10.7212 92.8344 10.5275 92.9 10.2692C92.9656 10.0109 93.0312 9.75257 93.1625 9.42969C93.2937 9.75257 93.4249 10.0754 93.4905 10.3337C93.5561 10.592 93.6873 10.6566 93.9497 10.6566C94.2122 10.6566 94.5402 10.6566 94.8026 10.7212C94.5402 10.9149 94.2778 11.1087 94.0154 11.3024C93.8841 11.367 93.8185 11.4961 93.8841 11.6253C94.0154 11.9481 94.081 12.2064 94.2122 12.6585C93.8841 12.4002 93.6217 12.271 93.3593 12.0773C93.2281 11.9481 93.0969 11.9481 92.9656 12.0773C92.7032 12.271 92.5064 12.4002 92.244 12.5939C92.244 12.5939 92.1784 12.5939 92.1784 12.5293C92.244 12.271 92.3096 11.9481 92.4408 11.6898C92.5064 11.4961 92.4408 11.367 92.3096 11.3024C92.1127 11.0441 91.8503 10.8504 91.5879 10.6566Z" fill="white"/>
<path d="M103.726 28.8004C103.463 28.6067 103.201 28.4776 103.004 28.2838C102.873 28.1547 102.741 28.1547 102.61 28.2838C102.348 28.4776 102.085 28.6713 101.823 28.8004C101.888 28.5421 102.02 28.2193 102.085 27.961C102.151 27.7672 102.151 27.6381 101.954 27.5735C101.692 27.3798 101.429 27.2506 101.232 26.9923C101.56 26.9923 101.823 26.9923 102.151 26.9923C102.348 26.9923 102.479 26.9277 102.545 26.734C102.61 26.4757 102.741 26.1528 102.873 25.8945C102.938 26.1528 103.069 26.4111 103.135 26.6694C103.201 26.9277 103.332 27.0569 103.594 26.9923C103.857 26.9923 104.119 26.9923 104.447 27.0569C104.185 27.2506 103.922 27.4443 103.66 27.5735C103.529 27.7027 103.463 27.7672 103.529 27.961C103.594 28.2193 103.66 28.4776 103.726 28.8004Z" fill="white"/>
<path d="M106.677 6.65064C107.005 6.65064 107.268 6.65064 107.596 6.65064C107.793 6.65064 107.858 6.58607 107.924 6.39234C107.99 6.06946 108.121 5.81116 108.318 5.48828C108.383 5.74658 108.514 6.00489 108.58 6.26319C108.646 6.52149 108.777 6.65064 109.039 6.58607C109.302 6.58607 109.564 6.58607 109.892 6.65064C109.695 6.77979 109.433 6.97352 109.236 7.10267C108.974 7.23182 108.908 7.42555 109.039 7.68385C109.17 7.94216 109.236 8.20046 109.236 8.52334C108.974 8.32961 108.711 8.13588 108.449 7.94216C108.318 7.813 108.186 7.813 108.055 7.94216C107.793 8.13588 107.53 8.32961 107.202 8.45876C107.268 8.20046 107.399 7.87758 107.465 7.61928C107.53 7.42555 107.53 7.2964 107.334 7.16725C107.071 7.0381 106.874 6.84437 106.612 6.65064C106.677 6.71522 106.677 6.71522 106.677 6.65064Z" fill="white"/>
<path d="M110.746 10.6564C111.008 10.6564 111.336 10.6564 111.598 10.6564C111.861 10.6564 111.992 10.5918 112.058 10.3335C112.123 10.0752 112.255 9.8169 112.386 9.55859C112.451 9.8169 112.583 10.0752 112.648 10.3981C112.714 10.6564 112.845 10.721 113.107 10.721C113.37 10.721 113.698 10.721 114.026 10.7855C113.764 10.9793 113.567 11.1084 113.304 11.3021C113.107 11.4313 113.042 11.5604 113.107 11.8187C113.239 12.077 113.304 12.3353 113.304 12.6582C113.042 12.4645 112.779 12.3353 112.583 12.1416C112.451 12.0125 112.32 12.0125 112.123 12.1416C111.861 12.3353 111.598 12.4645 111.336 12.6582C111.402 12.3999 111.467 12.2062 111.533 11.9479C111.664 11.625 111.598 11.4313 111.336 11.2376C111.139 11.1084 110.942 10.9793 110.746 10.8501C110.68 10.6564 110.746 10.6564 110.746 10.6564Z" fill="white"/>
<path d="M98.2145 8.58999C98.0177 8.46084 97.8209 8.33169 97.6241 8.13796C97.3616 7.87966 97.1648 7.87966 96.9024 8.13796C96.7055 8.26711 96.5087 8.39626 96.3119 8.52541C96.3119 8.52541 96.2463 8.52541 96.2463 8.46084C96.3119 8.20253 96.3775 8.00881 96.5087 7.7505C96.6399 7.4922 96.5743 7.29848 96.3119 7.16932C96.1151 7.04017 95.9183 6.84645 95.7214 6.65272C95.9839 6.65272 96.2463 6.65272 96.4431 6.65272C96.7712 6.71729 96.968 6.58814 97.0336 6.26526C97.0992 6.00696 97.1648 5.74866 97.296 5.42578C97.4272 5.81324 97.5585 6.07154 97.6241 6.39442C97.6897 6.65272 97.8209 6.71729 98.0833 6.71729C98.3457 6.71729 98.6738 6.71729 98.9362 6.71729C98.9362 6.71729 98.9362 6.78187 99.0018 6.78187C98.805 6.9756 98.5426 7.10475 98.3457 7.2339C98.0833 7.36305 98.0833 7.55678 98.1489 7.7505C98.0833 8.00881 98.2145 8.26711 98.2145 8.58999C98.2801 8.52541 98.2145 8.58999 98.2145 8.58999Z" fill="white"/>
<path d="M45.0066 20.211C45.0066 19.5006 45.0066 18.8549 45.0066 18.1445C45.5971 18.1445 46.1219 18.1445 46.6468 18.1445H46.7124C47.5653 18.2737 47.8933 18.8549 47.5653 19.6298C47.4341 20.0172 47.106 20.1464 46.778 20.211C46.2531 20.211 45.6627 20.211 45.0066 20.211Z" fill="white"/>
<path d="M55.5038 20.6647C55.5038 19.8898 56.0286 19.3086 56.8159 19.3086C57.5376 19.3086 58.1281 19.8898 58.1281 20.6647C58.1281 21.4396 57.5376 22.0208 56.8159 22.0208C56.0286 22.0208 55.4382 21.4396 55.5038 20.6647Z" fill="white"/>
<path d="M52.9453 20.535C52.0924 20.535 51.2395 20.535 50.3866 20.535C50.3866 19.8247 51.0427 19.3081 51.83 19.3726C52.5516 19.3726 53.0109 19.8892 52.9453 20.535Z" fill="white"/>
<path d="M35.0343 20.5364C34.1814 20.5364 33.3285 20.5364 32.4756 20.5364C32.41 20.1489 32.6068 19.826 32.9348 19.6323C33.4597 19.3094 33.9846 19.2449 34.5094 19.5677C34.8374 19.7615 35.0343 20.0843 35.0343 20.5364Z" fill="white"/>
<path d="M39.5613 20.9883C39.6269 21.4403 39.6269 21.8278 39.2332 22.0861C38.774 22.3444 38.3147 22.4089 37.8555 22.2152C37.5931 22.0861 37.4619 21.8923 37.5275 21.634C37.5275 21.3112 37.7243 21.182 37.9867 21.1174C38.446 21.0529 38.9708 21.0529 39.5613 20.9883Z" fill="white"/>
<path d="M65.9353 20.8587C65.9353 21.6982 65.3448 22.344 64.492 22.344C63.6391 22.344 63.0486 21.7628 63.0486 20.9233C63.0486 20.0192 63.6391 19.438 64.492 19.438C65.3448 19.3735 65.9353 20.0192 65.9353 20.8587Z" fill="white"/>
<path d="M10.7594 20.8563C10.7594 21.6958 10.1689 22.3416 9.31604 22.3416C8.46315 22.3416 7.87268 21.6958 7.87268 20.8563C7.87268 20.0168 8.52875 19.3711 9.31604 19.3711C10.1689 19.3711 10.7594 20.0168 10.7594 20.8563Z" fill="white"/>
<path d="M3.92263 31.3666V31.9336H0.753662V26.6005H3.92263V27.1676H1.38171V28.9225H3.77908V29.4896H1.38171V31.3666H3.92263ZM5.82473 31.9336H5.2541V26.6005H5.85344L7.65505 30.8713H7.67659L9.46743 26.6005H10.074V31.9336H9.50691V27.9607H9.46743L7.94575 31.5245H7.38589L5.85344 27.9607H5.82473V31.9336ZM11.6064 26.6005H13.5193C14.0217 26.6005 14.4272 26.7513 14.7359 27.0527C15.0445 27.3542 15.1989 27.7514 15.1989 28.2442C15.1989 28.7371 15.0445 29.1331 14.7359 29.4322C14.4272 29.7312 14.0217 29.8808 13.5193 29.8808H12.2344V31.9336H11.6064V26.6005ZM12.2344 27.1604V29.3209H13.0707C13.2357 29.3209 13.3817 29.3149 13.5085 29.303C13.6353 29.2886 13.7573 29.2683 13.8746 29.2419C13.9918 29.2132 14.0899 29.1738 14.1688 29.1235C14.2478 29.0709 14.3184 29.0051 14.3806 28.9261C14.4428 28.8448 14.4871 28.7479 14.5134 28.6354C14.5421 28.523 14.5564 28.3926 14.5564 28.2442C14.5564 27.8997 14.4643 27.6329 14.2801 27.4439C14.0959 27.2549 13.8351 27.1604 13.4977 27.1604H12.2344ZM16.6918 28.8938V29.6941C16.6918 29.9908 16.7301 30.2552 16.8067 30.4873C16.8832 30.7194 16.9885 30.9072 17.1225 31.0507C17.2589 31.1919 17.4144 31.2984 17.589 31.3701C17.7661 31.4419 17.9623 31.4778 18.1776 31.4778C18.3906 31.4778 18.5867 31.4419 18.7662 31.3701C18.9456 31.2984 19.1035 31.1919 19.2399 31.0507C19.3787 30.9072 19.4852 30.7194 19.5593 30.4873C19.6335 30.2552 19.6706 29.9908 19.6706 29.6941V28.8938C19.6706 28.3052 19.5318 27.8519 19.2543 27.5336C18.9791 27.2154 18.6202 27.0563 18.1776 27.0563C17.7398 27.0563 17.3821 27.2142 17.1045 27.5301C16.8294 27.8459 16.6918 28.3005 16.6918 28.8938ZM16.0709 29.6941V28.8938C16.0709 28.1473 16.2624 27.56 16.6452 27.1317C17.028 26.7034 17.54 26.4893 18.1812 26.4893C18.8248 26.4893 19.3368 26.7022 19.7172 27.1281C20.1 27.554 20.2915 28.1426 20.2915 28.8938V29.6941C20.2915 30.4406 20.0989 31.0196 19.7136 31.4312C19.3308 31.8403 18.8164 32.0448 18.1704 32.0448C17.522 32.0448 17.01 31.8403 16.6344 31.4312C16.2588 31.0196 16.0709 30.4406 16.0709 29.6941ZM23.0262 31.9336H22.4807L21.0021 26.6005H21.7342L22.757 30.9467H22.7857L23.8552 26.6005H24.5191L25.5886 30.9467H25.6173L26.6402 26.6005H27.3723L25.8937 31.9336H25.341L24.1997 27.6305H24.1674L23.0262 31.9336ZM31.4636 31.3666V31.9336H28.2946V26.6005H31.4636V27.1676H28.9227V28.9225H31.32V29.4896H28.9227V31.3666H31.4636ZM34.672 26.6005C34.9544 26.6005 35.2068 26.6448 35.4293 26.7333C35.6518 26.8195 35.8289 26.9367 35.9605 27.085C36.092 27.231 36.1913 27.3961 36.2583 27.5803C36.3253 27.7645 36.3588 27.9631 36.3588 28.176C36.3588 28.5756 36.2631 28.8974 36.0717 29.1415C35.8803 29.3855 35.6446 29.559 35.3647 29.6618L36.4557 31.9336H35.7379L34.7474 29.791H33.4016V31.9336H32.7735V26.6005H34.672ZM33.4016 29.2312H34.568C34.946 29.2312 35.2319 29.1438 35.4257 28.9692C35.6195 28.7945 35.7164 28.5457 35.7164 28.2227C35.7164 27.8782 35.6171 27.615 35.4185 27.4332C35.2199 27.2513 34.946 27.1604 34.5967 27.1604H33.4016V29.2312ZM41.7636 28.0576H41.15V28.0361C41.15 27.6078 41.2983 27.2429 41.595 26.9415C41.8916 26.64 42.296 26.4893 42.808 26.4893C43.2961 26.4893 43.6897 26.6269 43.9887 26.902C44.2878 27.1748 44.4374 27.5205 44.4374 27.9392C44.4374 28.0971 44.417 28.2454 44.3763 28.3842C44.3381 28.5206 44.2687 28.6665 44.1682 28.822C44.0701 28.9752 43.9804 29.1008 43.899 29.1989C43.8201 29.2946 43.698 29.4369 43.533 29.626L42.0543 31.3343V31.3809H44.5343V31.9336H41.1679V31.5388L43.1812 29.1989C43.3128 29.0505 43.4145 28.9297 43.4863 28.8364C43.5581 28.7407 43.6287 28.6139 43.698 28.456C43.7674 28.2957 43.8021 28.1378 43.8021 27.9823C43.8021 27.6927 43.7076 27.4631 43.5186 27.2932C43.3296 27.1209 43.0879 27.0348 42.7937 27.0348C42.4802 27.0348 42.2302 27.1317 42.0436 27.3255C41.857 27.5193 41.7636 27.7562 41.7636 28.0361V28.0576ZM45.6324 31.4778C45.6324 31.3295 45.6827 31.2039 45.7832 31.101C45.8861 30.9981 46.0105 30.9467 46.1564 30.9467C46.3095 30.9467 46.4364 30.9969 46.5368 31.0974C46.6397 31.1979 46.6912 31.3247 46.6912 31.4778C46.6912 31.6261 46.6397 31.7506 46.5368 31.851C46.4364 31.9515 46.3095 32.0018 46.1564 32.0018C46.0105 32.0018 45.8861 31.9515 45.7832 31.851C45.6827 31.7506 45.6324 31.6261 45.6324 31.4778ZM48.4892 29.1845V29.3568C48.4892 30.0195 48.6004 30.5411 48.8229 30.9215C49.0479 31.302 49.3529 31.4922 49.7381 31.4922C50.1257 31.4922 50.432 31.302 50.6569 30.9215C50.8842 30.5411 50.9978 30.0195 50.9978 29.3568V29.1845C50.9978 28.5218 50.8842 27.999 50.6569 27.6162C50.432 27.2334 50.1257 27.042 49.7381 27.042C49.3529 27.042 49.0479 27.2334 48.8229 27.6162C48.6004 27.999 48.4892 28.5218 48.4892 29.1845ZM47.8683 29.364V29.1773C47.8683 28.3567 48.0334 27.7035 48.3636 27.2178C48.6961 26.7321 49.1555 26.4893 49.7417 26.4893C50.3303 26.4893 50.7885 26.7321 51.1162 27.2178C51.4464 27.7035 51.6115 28.3567 51.6115 29.1773V29.364C51.6115 30.1846 51.4464 30.8366 51.1162 31.3199C50.7885 31.8032 50.3303 32.0448 49.7417 32.0448C49.1555 32.0448 48.6961 31.8032 48.3636 31.3199C48.0334 30.8366 47.8683 30.1846 47.8683 29.364Z" fill="#548687"/>
<path d="M0.721558 0.386719H3.47707V12.979H0.721558V0.386719Z" fill="#548687"/>
<path d="M15.3523 7.61978V12.8504L12.6624 12.915V7.61978C12.6624 6.13454 11.8751 5.55336 10.7598 5.48879C8.79159 5.48879 8.79159 7.61978 8.79159 7.61978V12.915L6.10168 12.8504V7.74893C6.10168 7.74893 6.49533 3.16406 10.891 3.16406C12.7936 3.22864 15.3523 5.16591 15.3523 7.61978Z" fill="#548687"/>
<path d="M16.6639 3.29372H17.8449V0.839844H20.6004V3.29372H22.831L22.9622 5.55387H20.6004V9.1701C20.6004 10.2679 20.8628 10.5908 21.4533 10.5908C21.9781 10.5908 22.831 10.4616 22.831 10.4616V12.5926C22.831 12.5926 21.9781 13.1738 20.666 13.1738C18.9602 13.1738 17.8449 12.3343 17.8449 10.397V5.55387H16.6639V3.29372Z" fill="#548687"/>
<path d="M33.9847 8.19913C33.9847 8.39286 33.9847 8.71574 33.9847 9.03862H27.2272C27.424 9.81352 27.8833 10.9113 29.261 10.9113C30.8356 10.9113 31.9509 9.94268 31.9509 9.94268L33.5255 11.2988C33.5255 11.2988 32.1477 13.1069 29.5891 13.1069C26.5711 13.1069 24.4717 10.9113 24.4717 8.32828C24.4717 5.74526 26.0463 3.09766 29.3922 3.09766C32.279 3.16223 33.9847 5.55153 33.9847 8.19913ZM31.1636 7.35965C31.098 6.58474 30.7044 5.29323 29.261 5.29323C27.8177 5.29323 27.2272 6.58474 27.1616 7.35965H31.1636Z" fill="#548687"/>
<path d="M41.9884 3.16406V6.00539C41.9884 6.00539 40.3482 6.06997 39.889 6.58657C39.4297 7.16775 39.3641 7.16775 39.2329 7.36148C38.4456 8.45927 38.8392 12.915 38.8392 12.915H36.0837V3.35779H38.7736V5.10133C38.7736 5.10133 39.6265 3.16406 41.2667 3.16406C42.1852 3.16406 41.9884 3.16406 41.9884 3.16406Z" fill="#548687"/>
<path d="M65.87 12.2674C63.5737 12.2674 61.5399 10.3947 61.5399 7.68253C61.5399 4.97035 63.5737 3.09766 65.87 3.09766C67.707 3.09766 69.0192 4.5829 69.0192 4.5829L68.9535 3.29138H71.7091V11.4279C71.7091 14.463 69.1504 15.7545 66.6573 15.7545C64.0986 15.7545 62.0648 14.7213 62.0648 14.7213L62.9833 12.7194C62.9833 12.7194 64.2298 13.5589 65.9356 13.5589C67.707 13.5589 68.6911 13.3652 68.9535 11.6216L69.0848 10.5239C68.7567 10.9759 67.3134 12.2674 65.87 12.2674Z" fill="#548687"/>
<path d="M49.599 3.16406V6.00539C49.599 6.00539 47.9588 6.06997 47.4996 6.58657C47.0403 7.16775 46.9747 7.16775 46.8435 7.36148C46.0562 8.45927 46.4498 12.915 46.4498 12.915H43.6943V3.35779H46.3842V5.10133C46.3842 5.10133 47.2371 3.16406 48.8773 3.16406C49.7302 3.16406 49.599 3.16406 49.599 3.16406Z" fill="#548687"/>
<path d="M60.2927 8.19913C60.2927 8.39286 60.2927 8.71574 60.2927 9.03862H53.5352C53.732 9.81352 54.1912 10.9113 55.569 10.9113C57.1436 10.9113 58.2589 9.94268 58.2589 9.94268L59.8335 11.2988C59.8335 11.2988 58.4557 13.1069 55.897 13.1069C52.8791 13.1069 50.7797 10.9113 50.7797 8.32828C50.7797 5.74526 52.3542 3.09766 55.7002 3.09766C58.5869 3.16223 60.2927 5.55153 60.2927 8.19913ZM57.4716 7.35965C57.406 6.58474 57.0124 5.29323 55.569 5.29323C54.1256 5.29323 53.5352 6.58474 53.4696 7.35965H57.4716Z" fill="#548687"/>
<path d="M66.6572 9.87943C67.8891 9.87943 68.8878 8.89643 68.8878 7.68385C68.8878 6.47127 67.8891 5.48828 66.6572 5.48828C65.4252 5.48828 64.4265 6.47127 64.4265 7.68385C64.4265 8.89643 65.4252 9.87943 66.6572 9.87943Z" fill="white"/>
</svg>
