<svg width="22" height="21" viewBox="0 0 22 21" fill="none" xmlns="http://www.w3.org/2000/svg">
<path d="M2.68785 5.12911C4.17231 5.12911 5.3757 3.98092 5.3757 2.56455C5.3757 1.14819 4.17231 0 2.68785 0C1.20339 0 0 1.14819 0 2.56455C0 3.98092 1.20339 5.12911 2.68785 5.12911Z" fill="#2E72B0"/>
<path d="M4.52744 6.83203H0.766388C0.489824 6.83203 0.265625 7.04594 0.265625 7.30981V20.3596C0.265625 20.6235 0.489824 20.8374 0.766388 20.8374H4.52744C4.804 20.8374 5.0282 20.6235 5.0282 20.3596V7.30981C5.0282 7.04594 4.804 6.83203 4.52744 6.83203Z" fill="#2E72B0"/>
<path d="M21.406 20.8393H17.9132C17.7801 20.8393 17.6522 20.7893 17.5574 20.7001C17.4626 20.6108 17.4085 20.4895 17.4067 20.3625C17.3844 18.8016 17.3176 14.02 17.2439 12.6301C17.1548 10.9463 14.2897 10.0314 12.9395 11.6348C12.5969 12.0529 12.412 12.5689 12.4145 13.0996L12.3709 20.3615C12.3708 20.4246 12.3577 20.4869 12.3322 20.5451C12.3067 20.6032 12.2695 20.656 12.2226 20.7004C12.1757 20.7448 12.1201 20.7799 12.059 20.8038C11.9978 20.8276 11.9324 20.8397 11.8663 20.8393H8.10913C8.04292 20.8397 7.97728 20.8275 7.91601 20.8036C7.85474 20.7796 7.79904 20.7444 7.75213 20.6998C7.70522 20.6552 7.66802 20.6022 7.64268 20.5438C7.61734 20.4854 7.60436 20.4229 7.60449 20.3597V7.30979C7.60475 7.18315 7.65759 7.06177 7.75145 6.97222C7.8453 6.88267 7.97252 6.83225 8.10526 6.83201H11.8663C11.999 6.83249 12.126 6.88299 12.2198 6.97249C12.3136 7.06198 12.3666 7.18323 12.3671 7.30979V8.4391C12.3671 8.4391 16.255 4.47358 20.3425 7.86151C21.0205 8.42616 21.5368 9.04996 21.7537 10.2643C22.1044 12.2355 21.993 18.4892 21.9474 20.3246C21.9449 20.4607 21.887 20.5905 21.786 20.6866C21.6849 20.7826 21.5486 20.8374 21.406 20.8393Z" fill="#2E72B0"/>
</svg>
