<svg width="27" height="24" viewBox="0 0 27 24" fill="none" xmlns="http://www.w3.org/2000/svg">
<path d="M9.77278 11.3105V20.5588" stroke="white" stroke-miterlimit="10" stroke-linecap="round" stroke-linejoin="round"/>
<path d="M18.252 9.89844L18.3174 22.8075" stroke="white" stroke-miterlimit="10" stroke-linecap="round" stroke-linejoin="round"/>
<path d="M18.2191 22.9999L26.2067 20.174V6.33371L18.2191 8.29254L9.77325 5.43457L1 7.48974L1.13094 22.8393" stroke="white" stroke-miterlimit="10" stroke-linecap="round" stroke-linejoin="round"/>
<path d="M1.13248 22.8386L9.77479 20.5586L18.2207 22.9991" stroke="white" stroke-miterlimit="10" stroke-linecap="round" stroke-linejoin="round"/>
<path d="M19.3329 6.57235C19.3329 9.64284 13.6523 16.3524 13.6523 16.3524C13.6523 16.3524 7.97168 9.64284 7.97168 6.57235C7.97168 3.50187 10.5222 1 13.6523 1C16.7824 1 19.3329 3.50187 19.3329 6.57235Z" fill="white" stroke="white" stroke-miterlimit="10" stroke-linecap="round" stroke-linejoin="round"/>
<path d="M13.6518 8.36338C14.7243 8.36338 15.5937 7.51056 15.5937 6.45855C15.5937 5.40653 14.7243 4.55371 13.6518 4.55371C12.5794 4.55371 11.71 5.40653 11.71 6.45855C11.71 7.51056 12.5794 8.36338 13.6518 8.36338Z" fill="#548687" stroke="#548687" stroke-miterlimit="10" stroke-linecap="round" stroke-linejoin="round"/>
</svg>
