<svg width="14" height="14" viewBox="0 0 14 14" fill="none" xmlns="http://www.w3.org/2000/svg">
<path d="M7 0C3.13423 0 0 3.13423 0 7C0 10.8662 3.13423 14 7 14C10.8662 14 14 10.8666 14 7C14 3.13423 10.8662 0 7 0ZM7 12.6875C3.85877 12.6875 1.31252 10.1412 1.31252 7C1.31252 3.85877 3.85877 1.31252 7 1.31252C10.1412 1.31252 12.6875 3.85877 12.6875 7C12.6875 10.1412 10.1412 12.6875 7 12.6875ZM7.00044 3.06992C6.49908 3.06992 6.11973 3.33157 6.11973 3.75418V7.63042C6.11973 8.05347 6.49903 8.31423 7.00044 8.31423C7.48956 8.31423 7.88115 8.04256 7.88115 7.63042V3.75418C7.8811 3.3416 7.48956 3.06992 7.00044 3.06992ZM7.00044 9.1875C6.51875 9.1875 6.12673 9.57953 6.12673 10.0616C6.12673 10.5428 6.51875 10.9349 7.00044 10.9349C7.48213 10.9349 7.87371 10.5428 7.87371 10.0616C7.87366 9.57948 7.48213 9.1875 7.00044 9.1875Z" fill="#000000"/>
</svg>
