<?xml version="1.0" encoding="UTF-8" standalone="no"?><!DOCTYPE svg PUBLIC "-//W3C//DTD SVG 1.1//EN" "http://www.w3.org/Graphics/SVG/1.1/DTD/svg11.dtd"><svg width="100%" height="100%" viewBox="0 0 134 75" version="1.1" xmlns="http://www.w3.org/2000/svg" xmlns:xlink="http://www.w3.org/1999/xlink" xml:space="preserve" xmlns:serif="http://www.serif.com/" style="fill-rule:evenodd;clip-rule:evenodd;stroke-miterlimit:10;"><path d="M96.245,66.041c0.087,0.596 0.046,1.203 -0.12,1.781c-0.166,0.578 -0.453,1.113 -0.842,1.568c-0.389,0.455 -0.87,0.82 -1.412,1.069c-0.541,0.249 -1.128,0.377 -1.723,0.374l-53.432,0c-0.575,0.001 -1.144,-0.124 -1.667,-0.366c-0.523,-0.242 -0.988,-0.596 -1.364,-1.038c-0.376,-0.442 -0.653,-0.96 -0.812,-1.52c-0.159,-0.56 -0.197,-1.148 -0.111,-1.724c1.079,-7.468 4.769,-14.295 10.398,-19.238c5.63,-4.944 12.825,-7.674 20.275,-7.695c7.449,-0.021 14.659,2.669 20.315,7.581c5.657,4.911 9.385,11.717 10.504,19.179l-0.009,0.029Z" style="fill:#fff;fill-rule:nonzero;stroke:#fff;stroke-width:3.33px;"/><path d="M67.363,29.662l-0,-24.537c-0,-0.254 -0.1,-0.498 -0.278,-0.678c-0.177,-0.179 -0.417,-0.28 -0.669,-0.28c-0.251,-0 -0.491,0.101 -0.668,0.28c-0.178,0.18 -0.278,0.424 -0.278,0.678l0,24.537c0,0.254 0.1,0.498 0.278,0.678c0.177,0.179 0.417,0.28 0.668,0.28c0.252,0 0.492,-0.101 0.669,-0.28c0.178,-0.18 0.278,-0.424 0.278,-0.678Z" style="fill:#ffffff;fill-rule:nonzero;stroke:#fff;stroke-width:2.7px;stroke-miterlimit:4;"/><path d="M80.335,32.806l4.862,-10.304l0.701,-1.485c0.52,-1.102 -1.107,-2.08 -1.637,-0.959l-4.863,10.304l-0.7,1.476c-0.52,1.112 1.107,2.08 1.637,0.958l0,0.01Z" style="fill:#ffffff;fill-rule:nonzero;stroke:#fff;stroke-width:2.7px;stroke-miterlimit:4;"/><path d="M91.648,40.195l16.083,-14.051l2.328,-2.032c0.946,-0.805 -0.416,-2.156 -1.334,-1.361l-16.083,14.061l-2.337,2.022c-0.946,0.815 0.426,2.157 1.343,1.361Z" style="fill:#ffffff;fill-rule:nonzero;stroke:#fff;stroke-width:2.7px;stroke-miterlimit:4;"/><path d="M105.918,62.633l21.551,-3.834l3.056,-0.546c1.192,-0.211 0.69,-2.061 -0.502,-1.85l-21.56,3.853l-3.028,0.556c-1.192,0.211 -0.681,2.061 0.511,1.841l-0.028,-0.02Z" style="fill:#ffffff;fill-rule:nonzero;stroke:#fff;stroke-width:2.7px;stroke-miterlimit:4;"/><path d="M100.413,52.417l8.704,-5.157l1.249,-0.738c0.206,-0.133 0.353,-0.341 0.411,-0.581c0.058,-0.24 0.022,-0.493 -0.1,-0.708c-0.122,-0.214 -0.321,-0.372 -0.555,-0.441c-0.234,-0.068 -0.486,-0.043 -0.702,0.072l-8.723,5.156l-1.239,0.738c-0.206,0.133 -0.353,0.341 -0.411,0.581c-0.059,0.24 -0.023,0.494 0.099,0.708c0.122,0.214 0.322,0.372 0.556,0.441c0.234,0.069 0.486,0.043 0.702,-0.071l0.009,-0Z" style="fill:#ffffff;fill-rule:nonzero;stroke:#fff;stroke-width:2.7px;stroke-miterlimit:4;"/><path d="M50.355,31.838l-4.863,-10.304l-0.7,-1.485c-0.529,-1.112 -2.157,-0.144 -1.637,0.958l4.873,10.313l0.69,1.476c0.53,1.112 2.157,0.144 1.637,-0.958Z" style="fill:#ffffff;fill-rule:nonzero;stroke:#fff;stroke-width:2.7px;stroke-miterlimit:4;"/><path d="M38.745,38.834l-16.14,-14.051l-2.327,-2.032c-0.946,-0.795 -2.261,0.556 -1.334,1.361l16.13,14.051l2.375,2.032c0.946,0.796 2.261,-0.546 1.343,-1.361l-0.047,0Z" style="fill:#ffffff;fill-rule:nonzero;stroke:#fff;stroke-width:2.7px;stroke-miterlimit:4;"/><path d="M28.246,60.812l-21.56,-3.882l-3.056,-0.556c-1.183,-0.211 -1.693,1.63 -0.501,1.85l21.56,3.882l3.046,0.546c1.192,0.221 1.703,-1.629 0.511,-1.84Z" style="fill:#ffffff;fill-rule:nonzero;stroke:#fff;stroke-width:2.7px;stroke-miterlimit:4;"/><path d="M31.253,48.754l-8.722,-5.156l-1.249,-0.738c-0.216,-0.115 -0.468,-0.14 -0.702,-0.072c-0.234,0.07 -0.433,0.227 -0.556,0.441c-0.122,0.214 -0.157,0.468 -0.099,0.708c0.058,0.24 0.205,0.448 0.411,0.581l8.722,5.157l1.249,0.738c0.216,0.114 0.468,0.14 0.702,0.071c0.235,-0.069 0.434,-0.227 0.556,-0.441c0.122,-0.214 0.158,-0.468 0.1,-0.708c-0.058,-0.24 -0.206,-0.448 -0.412,-0.581Z" style="fill:#ffffff;fill-rule:nonzero;stroke:#fff;stroke-width:2.7px;stroke-miterlimit:4;"/></svg>