<svg width="26" height="21" viewBox="0 0 26 21" fill="none" xmlns="http://www.w3.org/2000/svg">
<path d="M21.476 1.36086L24.7803 0C24.7803 0 24.2883 2.21159 22.598 3.07913C20.9076 3.94666 25.1445 2.30629 25.1445 2.30629C25.1445 2.30629 25.1225 4.20478 23.0297 5.07231C23.0297 5.07231 22.7683 11.8018 20.2761 15.055C17.2508 18.9956 13.5969 21.3904 7.15857 20.9475C1.5118 20.558 0.144531 18.8871 0.144531 18.8871C0.144531 18.8871 5.81627 18.9146 7.16738 16.5824C7.16738 16.5824 2.87466 16.926 1.55879 12.79C1.55879 12.79 3.08761 13.7186 5.81774 13.268C5.81774 13.268 1.24451 11.5712 0.743721 7.7528C0.743721 7.7528 1.56026 8.83874 4.10976 8.67989C4.10976 8.67989 -0.275489 5.57786 1.96707 1.01721C1.96707 1.01721 5.68997 5.7367 12.5483 6.47899C12.5469 6.47899 12.2531 -3.20284 21.476 1.36086Z" fill="#10ADDE"/>
</svg>
