<?xml version="1.0" encoding="UTF-8" standalone="no"?><!DOCTYPE svg PUBLIC "-//W3C//DTD SVG 1.1//EN" "http://www.w3.org/Graphics/SVG/1.1/DTD/svg11.dtd"><svg width="100%" height="100%" viewBox="0 0 500 496" version="1.1" xmlns="http://www.w3.org/2000/svg" xmlns:xlink="http://www.w3.org/1999/xlink" xml:space="preserve" xmlns:serif="http://www.serif.com/" style="fill-rule:evenodd;clip-rule:evenodd;stroke-miterlimit:10;"><rect id="Artboard1" x="0" y="0" width="500" height="495.833" style="fill:none;"/><clipPath id="_clip1"><rect x="0" y="0" width="500" height="495.833"/></clipPath><g clip-path="url(#_clip1)"><path d="M284.406,314.967c-0.346,10.191 -4.404,19.845 -11.325,26.929c-6.921,7.079 -16.163,11.037 -25.779,11.037c-9.617,0 -18.859,-3.958 -25.775,-11.037c-6.925,-7.084 -10.984,-16.738 -11.33,-26.929c0,-21.767 16.609,-306.634 37.08,-306.634c20.475,0 37.129,284.867 37.129,306.634Z" style="fill:none;fill-rule:nonzero;stroke:#fff;stroke-width:17.38px;"/><path d="M230.227,283.558c8.216,-5.062 17.954,-6.591 27.2,-4.266c9.245,2.32 17.304,8.32 22.508,16.75c5.204,8.437 7.162,18.662 5.471,28.583c-1.692,9.917 -6.909,18.771 -14.567,24.733c-16.75,11.996 -250.871,153.113 -262.083,134.942c-11.217,-18.171 204.483,-188.85 221.471,-200.742Z" style="fill:none;fill-rule:nonzero;stroke:#fff;stroke-width:17.38px;"/><path d="M269.839,283.558c-8.217,-5.062 -17.95,-6.591 -27.196,-4.266c-9.25,2.32 -17.304,8.32 -22.508,16.75c-5.204,8.437 -7.163,18.662 -5.471,28.583c1.692,9.917 6.904,18.771 14.567,24.733c17.179,11.896 251.058,153.013 262.466,134.842c11.405,-18.171 -204.675,-188.75 -221.858,-200.642Z" style="fill:none;fill-rule:nonzero;stroke:#fff;stroke-width:17.38px;"/><path d="M282.668,315.062c0,17.796 -15.941,32.784 -32.779,32.784c-16.842,-0 -32.779,-14.988 -32.779,-32.784c-0,-17.795 15.937,-32.779 32.779,-32.779c16.838,0 32.779,14.984 32.779,32.779Z" style="fill:none;fill-rule:nonzero;stroke:#fff;stroke-width:16.38px;stroke-miterlimit:4;"/></g></svg>